SplineFontDB: 3.0
FontName: Trocchi
FullName: Trocchi
FamilyName: Trocchi Normal Normal Normal
Weight: Regular
Copyright: SIL Open Font License
Version: 1.0
FONDName: Trocchi
ItalicAngle: 0
UnderlinePosition: -102
UnderlineWidth: 102
Ascent: 1638
Descent: 410
UFOAscent: 1505
UFODescent: -512
LayerCount: 2
Layer: 0 0 "Back"  1
Layer: 1 0 "Fore"  0
NeedsXUIDChange: 1
OS2Version: 0
OS2_WeightWidthSlopeOnly: 0
OS2_UseTypoMetrics: 0
CreationTime: 1332935306
ModificationTime: 1332935486
PfmFamily: 0
TTFWeight: 400
TTFWidth: 5
LineGap: 0
VLineGap: 0
Panose: 0 0 0 0 0 0 0 0 0 0
OS2TypoAscent: 1536
OS2TypoAOffset: 0
OS2TypoDescent: 512
OS2TypoDOffset: 0
OS2TypoLinegap: 0
OS2WinAscent: 2048
OS2WinAOffset: 0
OS2WinDescent: 803
OS2WinDOffset: 0
HheadAscent: 0
HheadAOffset: 1
HheadDescent: 0
HheadDOffset: 1
OS2SubXSize: 1331
OS2SubYSize: 1229
OS2SubXOff: 0
OS2SubYOff: 154
OS2SupXSize: 1331
OS2SupYSize: 1229
OS2SupXOff: 0
OS2SupYOff: 717
OS2StrikeYSize: 102
OS2StrikeYPos: 643
OS2Vendor: 'newt'
OS2CodePages: 00000001.00000000
OS2UnicodeRanges: 00000001.00000000.00000000.00000000
Lookup: 258 0 0 "'kern'"  {"'kern1'" [307,30,0] "'kern2'" [307,0,0] } ['kern' ('DFLT' <'dflt' > 'latn' <'dflt' > ) ]
MarkAttachClasses: 1
DEI: 91125
KernClass2: 28 31 "'kern2'" 
 1 A
 1 B
 16 D Eth O Oslash Q
 1 F
 5 H M N
 1 J
 1 K
 1 L
 1 P
 1 R
 1 T
 1 U
 1 V
 1 W
 1 Y
 1 a
 18 b o oslash p thorn
 1 d
 1 e
 12 h m n ntilde
 14 k kgreenlandic
 1 r
 1 s
 1 v
 1 w
 1 x
 1 y
 1 A
 26 C Ccedilla G O OE Oslash Q
 1 T
 1 U
 1 V
 1 W
 1 X
 1 Y
 25 a ae agrave aogonek aring
 66 c ccedilla d e eacute ecircumflex edieresis eogonek eth o oslash q
 5 colon
 5 comma
 1 g
 1 h
 6 hyphen
 1 i
 1 k
 1 l
 6 period
 13 quotedblright
 10 quoteright
 1 r
 1 s
 9 semicolon
 1 u
 1 v
 1 w
 1 x
 1 y
 1 z

StartChar: A
Encoding: 65 65 1
Width: 1662
VWidth: 0
Flags: W
PickledData: "(dp1
S'com.typemytype.robofont.layerData'
p2
(dp3
s."
LayerCount: 2
Fore
SplineSet
635 137 m 1
 383 137 l 1
 514 504 l 1
 1092 504 l 1
 1231 137 l 1
 1008 137 l 1
 1008 0 l 1
 1655 0 l 1
 1655 137 l 1
 1487 137 l 1
 952 1505 l 1
 715 1505 l 1
 188 137 l 1
 8 137 l 1
 8 0 l 1
 635 0 l 1
 635 137 l 1
1042 631 m 1
 561 631 l 1
 795 1309 l 1
 1042 631 l 1
831 1505 m 0
1496 10 m 0
EndSplineSet
EndChar

StartChar: AE
Encoding: 198 198 2
Width: 2164
VWidth: 0
Flags: W
PickledData: "(dp1
S'com.typemytype.robofont.layerData'
p2
(dp3
s."
LayerCount: 2
Fore
SplineSet
618 137 m 1
 401 137 l 1
 598 504 l 1
 1059 504 l 1
 1059 137 l 1
 874 137 l 1
 874 0 l 1
 2073 0 l 1
 2073 571 l 1
 1892 571 l 1
 1892 137 l 1
 1276 137 l 1
 1276 698 l 1
 1567 698 l 1
 1567 424 l 1
 1700 424 l 1
 1700 1038 l 1
 1567 1038 l 1
 1567 813 l 1
 1276 813 l 1
 1276 1335 l 1
 1892 1335 l 1
 1892 899 l 1
 2073 899 l 1
 2073 1479 l 1
 608 1479 l 1
 608 1335 l 1
 874 1335 l 1
 180 137 l 1
 0 137 l 1
 0 0 l 1
 618 0 l 1
 618 137 l 1
668 631 m 1
 1059 1335 l 1
 1059 631 l 1
 668 631 l 1
1082 1505 m 0
EndSplineSet
EndChar

StartChar: B
Encoding: 66 66 12
Width: 1445
VWidth: 0
Flags: W
PickledData: "(dp1
S'com.typemytype.robofont.layerData'
p2
(dp3
s."
LayerCount: 2
Fore
SplineSet
514 862 m 1
 731 862 l 2
 893 862 1077 924 1077 1100 c 0
 1077 1336 895 1360 594 1362 c 1
 514 1362 l 1
 514 862 l 1
514 137 m 1
 633 137 l 1
 967 139 1139 168 1139 420 c 0
 1139 633 934 729 731 729 c 2
 514 729 l 1
 514 137 l 1
33 0 m 1
 33 137 l 1
 279 137 l 1
 279 1362 l 1
 33 1362 l 1
 33 1505 l 1
 688 1505 l 2
 932 1505 1294 1450 1294 1133 c 0
 1294 1121 1292 1110 1292 1098 c 0
 1280 948 1184 856 1018 809 c 1
 1243 754 1374 625 1374 412 c 0
 1374 21 960 0 696 0 c 2
 33 0 l 1
EndSplineSet
EndChar

StartChar: C
Encoding: 67 67 13
Width: 1447
VWidth: 0
Flags: W
PickledData: "(dp1
S'com.typemytype.robofont.layerData'
p2
(dp3
s."
LayerCount: 2
Fore
SplineSet
817 1536 m 0
 377 1536 90 1212 84 768 c 1
 84 756 l 2
 84 334 379 -27 795 -27 c 0
 1145 -27 1360 154 1430 457 c 1
 1296 522 l 1
 1253 354 1104 158 858 158 c 2
 836 158 l 1
 529 172 348 479 348 764 c 0
 348 1153 549 1393 815 1393 c 0
 995 1393 1123 1305 1182 1217 c 1
 1119 1217 1004 1172 1004 1057 c 2
 1004 1042 l 1
 1010 948 1080 891 1174 891 c 0
 1301 891 1370 991 1370 1073 c 0
 1370 1347 1089 1536 817 1536 c 0
724 1505 m 0
724 0 m 0
EndSplineSet
EndChar

StartChar: D
Encoding: 68 68 19
Width: 1568
VWidth: 0
Flags: W
PickledData: "(dp1
S'com.typemytype.robofont.layerData'
p2
(dp3
s."
LayerCount: 2
Fore
SplineSet
512 137 m 1
 512 1360 l 1
 883 1360 1229 1270 1229 762 c 2
 1229 754 l 1
 1225 271 909 137 512 137 c 1
33 1362 m 1
 276 1362 l 1
 276 137 l 1
 33 137 l 1
 33 0 l 1
 522 0 l 2
 1087 0 1479 217 1485 752 c 1
 1485 762 l 2
 1485 1348 995 1505 485 1505 c 2
 33 1505 l 1
 33 1362 l 1
784 1505 m 0
784 753 m 0
EndSplineSet
EndChar

StartChar: Dcroat
Encoding: 272 272 21
Width: 1613
VWidth: 0
Flags: W
PickledData: "(dp1
S'com.typemytype.robofont.layerData'
p2
(dp3
s."
LayerCount: 2
Fore
SplineSet
522 0 m 2
 1087 0 1479 217 1485 752 c 1
 1485 762 l 2
 1485 1348 995 1505 485 1505 c 2
 33 1505 l 1
 33 1362 l 1
 276 1362 l 1
 276 834 l 1
 55 834 l 1
 55 690 l 1
 276 690 l 1
 276 137 l 1
 33 137 l 1
 33 0 l 1
 522 0 l 2
512 137 m 1
 512 690 l 1
 764 690 l 1
 764 834 l 1
 512 834 l 1
 512 1360 l 1
 883 1360 1229 1270 1229 762 c 2
 1229 754 l 1
 1225 271 909 137 512 137 c 1
EndSplineSet
EndChar

StartChar: E
Encoding: 69 69 22
Width: 1484
VWidth: 0
Flags: W
PickledData: "(dp1
S'com.typemytype.robofont.layerData'
p2
(dp3
s."
LayerCount: 2
Fore
SplineSet
33 0 m 1
 33 137 l 1
 279 137 l 1
 279 1362 l 1
 33 1362 l 1
 33 1505 l 1
 1393 1505 l 1
 1393 926 l 1
 1212 926 l 1
 1212 1362 l 1
 514 1362 l 1
 514 821 l 1
 887 821 l 1
 887 1067 l 1
 1020 1067 l 1
 1020 446 l 1
 887 446 l 1
 887 707 l 1
 514 707 l 1
 514 137 l 1
 1212 137 l 1
 1212 571 l 1
 1393 571 l 1
 1393 0 l 1
 33 0 l 1
742 1505 m 0
742 0 m 0
1336 10 m 0
EndSplineSet
EndChar

StartChar: Eth
Encoding: 208 208 31
Width: 1613
VWidth: 0
Flags: W
PickledData: "(dp1
S'com.typemytype.robofont.layerData'
p2
(dp3
s."
LayerCount: 2
Fore
SplineSet
764 690 m 1
 764 834 l 1
 55 834 l 1
 55 690 l 1
 764 690 l 1
EndSplineSet
Refer: 19 68 N 1 0 0 1 0 0 2
EndChar

StartChar: F
Encoding: 70 70 33
Width: 1409
VWidth: 0
Flags: W
PickledData: "(dp1
S'com.typemytype.robofont.layerData'
p2
(dp3
s."
LayerCount: 2
Fore
SplineSet
33 0 m 1
 33 137 l 1
 276 137 l 1
 276 1362 l 1
 33 1362 l 1
 33 1505 l 1
 1374 1505 l 1
 1374 956 l 1
 1192 956 l 1
 1192 1362 l 1
 512 1362 l 1
 512 844 l 1
 872 844 l 1
 872 1055 l 1
 1010 1055 l 1
 1010 471 l 1
 872 471 l 1
 872 725 l 1
 512 725 l 1
 512 137 l 1
 772 137 l 1
 772 0 l 1
 33 0 l 1
EndSplineSet
EndChar

StartChar: G
Encoding: 71 71 34
Width: 1599
VWidth: 0
Flags: W
PickledData: "(dp1
S'com.typemytype.robofont.layerData'
p2
(dp3
s."
LayerCount: 2
Fore
SplineSet
1262 211 m 1
 1311 0 l 1
 1432 0 l 1
 1432 586 l 1
 1595 586 l 1
 1595 737 l 1
 944 737 l 1
 944 586 l 1
 1227 586 l 1
 1227 446 l 2
 1227 327 1067 152 852 152 c 0
 555 152 346 443 346 762 c 2
 346 770 l 1
 350 1116 544 1393 874 1393 c 0
 974 1393 1133 1362 1225 1237 c 1
 1184 1241 1094 1183 1094 1077 c 0
 1094 1001 1162 920 1262 920 c 0
 1375 920 1438 1014 1434 1092 c 0
 1424 1332 1196 1536 850 1534 c 0
 369 1530 84 1163 84 760 c 0
 84 381 313 -21 788 -27 c 1
 954 -25 1168 25 1262 211 c 1
800 1505 m 0
800 0 m 0
EndSplineSet
EndChar

StartChar: H
Encoding: 72 72 39
Width: 1654
VWidth: 0
Flags: W
PickledData: "(dp1
S'com.typemytype.robofont.layerData'
p2
(dp3
s."
LayerCount: 2
Fore
SplineSet
1622 137 m 1
 1622 0 l 1
 911 0 l 1
 911 137 l 1
 1143 137 l 1
 1143 725 l 1
 512 725 l 1
 512 137 l 1
 741 137 l 1
 741 0 l 1
 33 0 l 1
 33 137 l 1
 276 137 l 1
 276 1362 l 1
 33 1362 l 1
 33 1505 l 1
 741 1505 l 1
 741 1362 l 1
 512 1362 l 1
 512 852 l 1
 1143 852 l 1
 1143 1362 l 1
 911 1362 l 1
 911 1505 l 1
 1622 1505 l 1
 1622 1362 l 1
 1378 1362 l 1
 1378 137 l 1
 1622 137 l 1
827 1505 m 0
827 753 m 0
EndSplineSet
EndChar

StartChar: Hbar
Encoding: 294 294 40
Width: 1654
VWidth: 0
Flags: W
PickledData: "(dp1
S'com.typemytype.robofont.layerData'
p2
(dp3
s."
LayerCount: 2
Fore
SplineSet
1143 1048 m 1
 1143 852 l 1
 512 852 l 1
 512 1048 l 1
 1143 1048 l 1
741 0 m 1
 741 137 l 1
 512 137 l 1
 512 725 l 1
 1143 725 l 1
 1143 137 l 1
 911 137 l 1
 911 0 l 1
 1622 0 l 1
 1622 137 l 1
 1378 137 l 1
 1378 1048 l 1
 1484 1048 l 1
 1484 1166 l 1
 1378 1166 l 1
 1378 1362 l 1
 1622 1362 l 1
 1622 1505 l 1
 911 1505 l 1
 911 1362 l 1
 1143 1362 l 1
 1143 1166 l 1
 512 1166 l 1
 512 1362 l 1
 741 1362 l 1
 741 1505 l 1
 33 1505 l 1
 33 1362 l 1
 276 1362 l 1
 276 1166 l 1
 173 1166 l 1
 173 1048 l 1
 276 1048 l 1
 276 137 l 1
 33 137 l 1
 33 0 l 1
 741 0 l 1
EndSplineSet
EndChar

StartChar: I
Encoding: 73 73 42
Width: 790
VWidth: 0
Flags: W
PickledData: "(dp1
S'com.typemytype.robofont.layerData'
p2
(dp3
s."
LayerCount: 2
Fore
SplineSet
520 137 m 1
 750 137 l 1
 750 0 l 1
 41 0 l 1
 41 137 l 1
 285 137 l 1
 285 1362 l 1
 41 1362 l 1
 41 1505 l 1
 750 1505 l 1
 750 1362 l 1
 520 1362 l 1
 520 137 l 1
395 1505 m 0
711 10 m 0
EndSplineSet
EndChar

StartChar: J
Encoding: 74 74 53
Width: 1161
VWidth: 0
Flags: W
PickledData: "(dp1
S'com.typemytype.robofont.layerData'
p2
(dp3
s."
LayerCount: 2
Fore
SplineSet
451 -201 m 0
 826 -201 911 45 911 338 c 2
 911 1362 l 1
 1149 1362 l 1
 1149 1505 l 1
 395 1505 l 1
 395 1362 l 1
 676 1362 l 1
 676 311 l 2
 676 69 645 -88 440 -88 c 0
 383 -88 287 -66 260 -27 c 1
 301 -2 371 61 371 141 c 0
 371 243 287 301 205 301 c 0
 119 301 35 242 35 123 c 0
 35 -51 199 -201 451 -201 c 0
581 1505 m 0
EndSplineSet
EndChar

StartChar: K
Encoding: 75 75 55
Width: 1624
VWidth: 0
Flags: W
PickledData: "(dp1
S'com.typemytype.robofont.layerData'
p2
(dp3
s."
LayerCount: 2
Fore
SplineSet
905 0 m 1
 905 137 l 1
 1128 137 l 1
 684 696 l 1
 512 553 l 1
 512 137 l 1
 723 137 l 1
 723 0 l 1
 33 0 l 1
 33 137 l 1
 276 137 l 1
 276 1362 l 1
 33 1362 l 1
 33 1505 l 1
 723 1505 l 1
 723 1362 l 1
 512 1362 l 1
 512 735 l 1
 526 739 602 809 612 817 c 1
 675 878 1118 1362 1118 1362 c 1
 889 1362 l 1
 889 1505 l 1
 1599 1505 l 1
 1599 1362 l 1
 1370 1362 l 1
 862 825 l 1
 1436 137 l 1
 1612 137 l 1
 1612 0 l 1
 905 0 l 1
812 1505 m 0
812 0 m 0
EndSplineSet
EndChar

StartChar: L
Encoding: 76 76 57
Width: 1290
VWidth: 0
Flags: W
PickledData: "(dp1
S'com.typemytype.robofont.layerData'
p2
(dp3
s."
LayerCount: 2
Fore
SplineSet
1264 0 m 1
 1264 625 l 1
 1077 625 l 1
 1077 137 l 1
 512 137 l 1
 512 1362 l 1
 741 1362 l 1
 741 1505 l 1
 33 1505 l 1
 33 1362 l 1
 276 1362 l 1
 276 137 l 1
 33 137 l 1
 33 0 l 1
 1264 0 l 1
645 1505 m 0
645 0 m 0
EndSplineSet
EndChar

StartChar: Lslash
Encoding: 321 321 62
Width: 1290
VWidth: 0
Flags: W
PickledData: "(dp1
S'com.typemytype.robofont.layerData'
p2
(dp3
s."
LayerCount: 2
Fore
SplineSet
1264 0 m 1
 1264 625 l 1
 1077 625 l 1
 1077 137 l 1
 512 137 l 1
 512 821 l 1
 724 925 l 1
 724 1073 l 1
 512 969 l 1
 512 1362 l 1
 741 1362 l 1
 741 1505 l 1
 33 1505 l 1
 33 1362 l 1
 276 1362 l 1
 276 853 l 1
 61 747 l 1
 61 599 l 1
 276 705 l 1
 276 137 l 1
 33 137 l 1
 33 0 l 1
 1264 0 l 1
EndSplineSet
EndChar

StartChar: M
Encoding: 77 77 63
Width: 1937
VWidth: 0
Flags: W
PickledData: "(dp1
S'com.typemytype.robofont.layerData'
p2
(dp3
s."
LayerCount: 2
Fore
SplineSet
51 0 m 1
 51 137 l 1
 270 137 l 1
 270 1362 l 1
 33 1362 l 1
 33 1505 l 1
 639 1505 l 1
 995 557 l 1
 1327 1505 l 1
 1890 1505 l 1
 1890 1362 l 1
 1657 1362 l 1
 1657 137 l 1
 1905 137 l 1
 1905 0 l 1
 1212 0 l 1
 1212 137 l 1
 1432 137 l 1
 1432 1329 l 1
 1042 258 l 2
 1022 205 996 182 969 182 c 0
 938 182 907 213 891 252 c 2
 453 1360 l 1
 453 137 l 1
 705 137 l 1
 705 0 l 1
 51 0 l 1
EndSplineSet
EndChar

StartChar: N
Encoding: 78 78 64
Width: 1720
VWidth: 0
Flags: W
PickledData: "(dp1
S'com.typemytype.robofont.layerData'
p2
(dp3
s."
LayerCount: 2
Fore
SplineSet
694 137 m 1
 465 137 l 1
 465 1292 l 1
 1208 0 l 1
 1475 0 l 1
 1475 1362 l 1
 1704 1362 l 1
 1704 1505 l 1
 1040 1505 l 1
 1040 1362 l 1
 1284 1362 l 1
 1284 266 l 1
 573 1505 l 1
 33 1505 l 1
 33 1362 l 1
 274 1362 l 1
 274 137 l 1
 33 137 l 1
 33 0 l 1
 694 0 l 1
 694 137 l 1
860 1505 m 0
860 0 m 0
EndSplineSet
EndChar

StartChar: O
Encoding: 79 79 69
Width: 1589
VWidth: 0
Flags: W
PickledData: "(dp1
S'com.typemytype.robofont.layerData'
p2
(dp3
s."
LayerCount: 2
Fore
SplineSet
84 754 m 0
 84 1137 316 1536 795 1536 c 0
 1272 1536 1505 1137 1505 754 c 0
 1505 369 1272 -27 795 -27 c 0
 316 -27 84 369 84 754 c 0
340 756 m 0
 340 432 500 113 795 113 c 0
 1090 113 1249 430 1249 752 c 0
 1249 1071 1090 1393 795 1399 c 1
 500 1399 340 1078 340 756 c 0
795 1505 m 0
EndSplineSet
EndChar

StartChar: OE
Encoding: 338 338 70
Width: 2197
VWidth: 0
Flags: W
PickledData: "(dp1
S'com.typemytype.robofont.layerData'
p2
(dp3
s."
LayerCount: 2
Fore
SplineSet
2087 571 m 1
 1907 571 l 1
 1907 137 l 1
 1268 137 l 1
 1268 698 l 1
 1581 698 l 1
 1581 424 l 1
 1714 424 l 1
 1714 1038 l 1
 1581 1038 l 1
 1581 813 l 1
 1268 813 l 1
 1268 1335 l 1
 1907 1335 l 1
 1907 899 l 1
 2087 899 l 1
 2087 1479 l 1
 772 1479 l 2
 422 1479 84 1233 84 741 c 0
 84 266 401 0 768 0 c 2
 2087 0 l 1
 2087 571 l 1
340 743 m 0
 340 1149 553 1335 805 1335 c 2
 1042 1335 l 1
 1042 137 l 1
 774 137 l 2
 534 137 340 360 340 743 c 0
1099 1505 m 0
EndSplineSet
EndChar

StartChar: Oslash
Encoding: 216 216 78
Width: 1589
VWidth: 0
Flags: W
PickledData: "(dp1
S'com.typemytype.robofont.layerData'
p2
(dp3
s."
LayerCount: 2
Fore
SplineSet
1432 1536 m 1
 1497 1483 l 1
 166 -90 l 1
 100 -37 l 1
 1432 1536 l 1
795 1505 m 0
EndSplineSet
Refer: 69 79 N 1 0 0 1 0 0 2
EndChar

StartChar: P
Encoding: 80 80 80
Width: 1333
VWidth: 0
Flags: W
PickledData: "(dp1
S'com.typemytype.robofont.layerData'
p2
(dp3
s."
LayerCount: 2
Fore
SplineSet
580 1362 m 1
 512 1362 l 1
 512 805 l 1
 651 805 l 2
 864 805 1073 859 1073 1090 c 0
 1073 1362 848 1360 580 1362 c 1
33 1505 m 1
 647 1505 l 2
 887 1505 1315 1489 1315 1098 c 0
 1315 705 934 676 592 676 c 2
 512 676 l 1
 512 137 l 1
 762 137 l 1
 762 0 l 1
 33 0 l 1
 33 137 l 1
 276 137 l 1
 276 1362 l 1
 33 1362 l 1
 33 1505 l 1
EndSplineSet
EndChar

StartChar: Q
Encoding: 81 81 81
Width: 1617
VWidth: 0
Flags: W
PickledData: "(dp1
S'com.typemytype.robofont.layerData'
p2
(dp3
s."
LayerCount: 2
Fore
SplineSet
795 113 m 0
 686 113 596 153 526 223 c 1
 553 272 619 375 713 375 c 0
 817 375 893 273 965 152 c 1
 916 127 858 113 795 113 c 0
752 502 m 1
 723 502 l 1
 555 492 478 368 451 315 c 1
 379 432 340 598 340 756 c 0
 340 1078 500 1399 795 1399 c 1
 1090 1393 1249 1071 1249 752 c 0
 1249 584 1206 406 1120 289 c 1
 1034 400 926 496 766 502 c 1
 752 502 l 1
1671 229 m 2
 1671 252 l 1
 1550 252 l 1
 1550 229 l 2
 1550 86 1493 -21 1413 -29 c 1
 1405 -29 l 2
 1346 -29 1294 37 1237 121 c 1
 1417 268 1505 516 1505 754 c 0
 1505 1137 1272 1536 795 1536 c 0
 316 1536 84 1137 84 754 c 0
 84 369 316 -27 795 -27 c 0
 889 -27 973 -13 1049 14 c 1
 1129 -111 1221 -221 1358 -221 c 0
 1551 -221 1671 -146 1671 229 c 2
EndSplineSet
EndChar

StartChar: R
Encoding: 82 82 82
Width: 1583
VWidth: 0
Flags: W
PickledData: "(dp1
S'com.typemytype.robofont.layerData'
p2
(dp3
s."
LayerCount: 2
Fore
SplineSet
512 836 m 1
 512 1362 l 1
 629 1362 l 2
 951 1362 1106 1307 1112 1100 c 1
 1112 1090 l 2
 1112 897 936 836 637 836 c 2
 512 836 l 1
1282 -33 m 0
 1425 -33 1581 25 1581 324 c 2
 1581 471 l 1
 1446 471 l 1
 1446 332 l 2
 1446 193 1406 141 1343 141 c 0
 1236 141 1231 315 1186 481 c 1
 1149 622 1106 704 950 737 c 1
 1157 780 1319 864 1323 1100 c 1
 1323 1108 l 2
 1323 1501 905 1505 608 1505 c 2
 33 1505 l 1
 33 1362 l 1
 276 1362 l 1
 276 137 l 1
 33 137 l 1
 33 0 l 1
 739 0 l 1
 739 137 l 1
 512 137 l 1
 512 686 l 1
 748 686 l 1
 733 684 l 1
 743 684 l 2
 774 684 915 651 952 440 c 0
 1003 145 1067 -33 1282 -33 c 0
733 684 m 1
 731 684 l 1
 727 682 l 1
 733 684 l 1
792 1505 m 0
792 0 m 0
EndSplineSet
EndChar

StartChar: S
Encoding: 83 83 86
Width: 1337
VWidth: 0
Flags: W
PickledData: "(dp1
S'com.typemytype.robofont.layerData'
p2
(dp3
s."
LayerCount: 2
Fore
SplineSet
676 -27 m 0
 1069 -27 1278 137 1278 397 c 1
 1276 620 1166 776 668 887 c 0
 355 957 317 1049 317 1153 c 1
 321 1315 492 1409 678 1409 c 0
 801 1409 924 1385 1016 1303 c 1
 953 1303 879 1264 879 1147 c 0
 879 1057 963 1006 1047 1006 c 0
 1158 1006 1217 1093 1217 1206 c 0
 1217 1452 864 1536 653 1536 c 0
 311 1536 78 1356 78 1112 c 0
 78 889 198 751 614 649 c 1
 893 579 1022 526 1022 362 c 0
 1022 194 844 121 643 121 c 0
 508 121 364 154 258 215 c 1
 340 225 399 268 399 360 c 0
 399 442 332 526 240 526 c 0
 148 526 59 451 59 336 c 0
 59 86 371 -27 676 -27 c 0
669 1505 m 0
669 0 m 0
EndSplineSet
EndChar

StartChar: T
Encoding: 84 84 91
Width: 1435
VWidth: 0
Flags: W
PickledData: "(dp1
S'com.typemytype.robofont.layerData'
p2
(dp3
s."
LayerCount: 2
Fore
SplineSet
1079 143 m 1
 840 143 l 1
 840 1362 l 1
 1214 1362 l 1
 1214 897 l 1
 1401 897 l 1
 1401 1505 l 1
 35 1505 l 1
 35 897 l 1
 221 897 l 1
 221 1362 l 1
 604 1362 l 1
 604 143 l 1
 371 143 l 1
 371 0 l 1
 1079 0 l 1
 1079 143 l 1
718 1505 m 0
718 0 m 0
718 753 m 0
EndSplineSet
EndChar

StartChar: Thorn
Encoding: 222 222 94
Width: 1382
VWidth: 0
Flags: W
PickledData: "(dp1
S'com.typemytype.robofont.layerData'
p2
(dp3
s."
LayerCount: 2
Fore
SplineSet
1110 766 m 0
 1110 535 901 506 688 506 c 2
 549 506 l 1
 549 1026 l 1
 616 1026 l 1
 884 1024 1110 1038 1110 766 c 0
799 0 m 1
 799 137 l 1
 549 137 l 1
 549 377 l 1
 629 377 l 2
 971 377 1352 381 1352 774 c 0
 1352 1165 924 1169 684 1169 c 2
 549 1169 l 1
 549 1335 l 1
 778 1335 l 1
 778 1479 l 1
 70 1479 l 1
 70 1335 l 1
 313 1335 l 1
 313 137 l 1
 70 137 l 1
 70 0 l 1
 799 0 l 1
EndSplineSet
EndChar

StartChar: U
Encoding: 85 85 95
Width: 1603
VWidth: 0
Flags: W
PickledData: "(dp1
S'com.typemytype.robofont.layerData'
p2
(dp3
s."
LayerCount: 2
Fore
SplineSet
799 -27 m 0
 1252 -27 1374 221 1374 547 c 2
 1374 1362 l 1
 1583 1362 l 1
 1583 1505 l 1
 944 1505 l 1
 944 1362 l 1
 1171 1362 l 1
 1171 508 l 2
 1171 250 1046 125 821 125 c 0
 577 125 471 262 471 502 c 2
 471 1362 l 1
 692 1362 l 1
 692 1505 l 1
 20 1505 l 1
 20 1362 l 1
 236 1362 l 1
 236 516 l 2
 236 205 391 -27 799 -27 c 0
802 1505 m 0
1443 10 m 0
EndSplineSet
EndChar

StartChar: V
Encoding: 86 86 106
Width: 1640
VWidth: 0
Flags: W
PickledData: "(dp1
S'com.typemytype.robofont.layerData'
p2
(dp3
s."
LayerCount: 2
Fore
SplineSet
676 106 m 1
 713 8 749 -35 821 -35 c 0
 897 -35 925 12 958 106 c 2
 1389 1362 l 1
 1632 1362 l 1
 1632 1505 l 1
 954 1505 l 1
 954 1362 l 1
 1219 1362 l 1
 866 293 l 1
 502 1362 l 1
 713 1362 l 1
 713 1505 l 1
 -4 1505 l 1
 -4 1362 l 1
 225 1362 l 1
 676 106 l 1
EndSplineSet
EndChar

StartChar: W
Encoding: 87 87 107
Width: 2238
VWidth: 0
Flags: W
PickledData: "(dp1
S'com.typemytype.robofont.layerData'
p2
(dp3
s."
LayerCount: 2
Fore
SplineSet
1550 -35 m 0
 1626 -35 1646 12 1679 106 c 1
 2028 1362 l 1
 2210 1362 l 1
 2210 1505 l 1
 1655 1505 l 1
 1655 1362 l 1
 1858 1362 l 1
 1585 307 l 1
 1294 1362 l 1
 1094 1362 l 1
 805 307 l 1
 514 1362 l 1
 725 1362 l 1
 725 1505 l 1
 29 1505 l 1
 29 1362 l 1
 258 1362 l 1
 645 106 l 1
 682 8 706 -35 778 -35 c 0
 854 -35 888 10 915 106 c 2
 915 106 1169 1012 1167 1012 c 1
 1432 106 l 1
 1463 6 1478 -35 1550 -35 c 0
1119 1505 m 0
EndSplineSet
EndChar

StartChar: X
Encoding: 88 88 108
Width: 1699
VWidth: 0
Flags: W
PickledData: "(dp1
S'com.typemytype.robofont.layerData'
p2
(dp3
s."
LayerCount: 2
Fore
SplineSet
1464 137 m 1
 1683 137 l 1
 1683 0 l 1
 969 0 l 1
 969 137 l 1
 1190 137 l 1
 833.648 609.436 l 1
 453 137 l 1
 664 137 l 1
 664 0 l 1
 16 0 l 1
 16 137 l 1
 217 137 l 1
 720.521 759.415 l 1
 266 1362 l 1
 23 1362 l 1
 23 1505 l 1
 770 1505 l 1
 770 1362 l 1
 541 1362 l 1
 862.652 935.106 l 1
 1208 1362 l 1
 961 1362 l 1
 961 1505 l 1
 1669 1505 l 1
 1669 1362 l 1
 1440 1362 l 1
 975.438 785.416 l 1
 1464 137 l 1
EndSplineSet
EndChar

StartChar: Y
Encoding: 89 89 109
Width: 1554
VWidth: 0
Flags: W
PickledData: "(dp1
S'com.typemytype.robofont.layerData'
p2
(dp3
s."
LayerCount: 2
Fore
SplineSet
659 594.941 m 1
 659 137 l 1
 416 137 l 1
 416 0 l 1
 1124 0 l 1
 1124 137 l 1
 895 137 l 1
 895 589.687 l 1
 1343 1362 l 1
 1532 1362 l 1
 1532 1505 l 1
 926 1505 l 1
 926 1362 l 1
 1149 1362 l 1
 801 741 l 1
 463 1362 l 1
 692 1362 l 1
 692 1505 l 1
 23 1505 l 1
 23 1362 l 1
 227 1362 l 1
 659 594.941 l 1
777 1505 m 0
EndSplineSet
EndChar

StartChar: Z
Encoding: 90 90 112
Width: 1359
VWidth: 0
Flags: W
PickledData: "(dp1
S'com.typemytype.robofont.layerData'
p2
(dp3
s."
LayerCount: 2
Fore
SplineSet
1278 0 m 1
 1278 590 l 1
 1092 590 l 1
 1092 137 l 1
 381 137 l 1
 1245 1335 l 1
 1204 1505 l 1
 129 1505 l 1
 129 946 l 1
 315 946 l 1
 315 1368 l 1
 983 1368 l 1
 113 166 l 1
 111 166 l 1
 135 0 l 1
 1278 0 l 1
680 1505 m 0
EndSplineSet
EndChar

StartChar: a
Encoding: 97 97 116
Width: 1267
VWidth: 0
Flags: W
PickledData: "(dp1
S'com.typemytype.robofont.layerData'
p2
(dp3
s."
LayerCount: 2
Fore
SplineSet
291 229 m 0
 291 403 508 387 707 584 c 1
 707 371 l 2
 707 258 543 117 408 117 c 0
 328 117 291 166 291 229 c 0
1276 313 m 2
 1276 442 l 1
 1167 442 l 1
 1167 293 l 2
 1167 187 1136 115 1040 115 c 0
 948 115 922 215 922 283 c 2
 922 743 l 2
 922 1013 746 1102 537 1102 c 0
 248 1102 113 921 113 817 c 0
 113 704 190 655 260 655 c 0
 334 655 399 711 399 797 c 0
 399 856 350 913 260 913 c 1
 307 966 402 997 494 997 c 0
 625 997 707 928 707 772 c 0
 707 516 78 555 78 219 c 0
 78 61 196 -29 356 -29 c 1
 516 -27 666 78 723 223 c 1
 739 51 868 -29 997 -29 c 2
 1001 -29 l 1
 1153 -27 1276 37 1276 313 c 2
634 1073 m 0
1140 10 m 0
EndSplineSet
EndChar

StartChar: acute
Encoding: 180 180 120
Width: 1269
VWidth: 0
Flags: W
PickledData: "(dp1
S'com.typemytype.robofont.layerData'
p2
(dp3
s."
LayerCount: 2
Fore
SplineSet
971 1458 m 1
 871 1356 424 1194 424 1194 c 1
 395 1233 l 1
 577 1389 870 1597 870 1597 c 1
 971 1458 l 1
683 1073 m 0
EndSplineSet
EndChar

StartChar: ae
Encoding: 230 230 122
Width: 1728
VWidth: 0
Flags: W
PickledData: "(dp1
S'com.typemytype.robofont.layerData'
p2
(dp3
s."
LayerCount: 2
Fore
SplineSet
395 117 m 0
 323 117 282 168 274 227 c 0
 258 356 407 432 733 508 c 1
 733 508 737 414 737 389 c 1
 719 307 600 117 395 117 c 0
963 651 m 1
 979 848 1090 981 1235 985 c 1
 1239 985 l 2
 1362 985 1440 860 1440 729 c 1
 963 651 l 1
1673 334 m 1
 1556 371 l 1
 1511 205 1380 123 1251 123 c 0
 1030 123 963 436 963 547 c 1
 1624 643 l 1
 1624 807 1528 1104 1245 1104 c 2
 1229 1104 l 1
 1084 1098 975 1046 891 913 c 1
 819 1065 657 1102 516 1102 c 0
 303 1102 117 984 117 834 c 0
 117 709 190 655 264 655 c 0
 338 655 414 711 414 797 c 0
 414 856 360 913 270 913 c 1
 317 966 406 997 498 997 c 0
 629 997 733 928 733 772 c 2
 733 623 l 1
 491 562 82 506 82 219 c 0
 82 61 209 -29 369 -29 c 0
 588 -29 749 104 827 266 c 1
 870 131 1034 -35 1245 -29 c 0
 1466 -23 1622 117 1673 334 c 1
864 1073 m 0
EndSplineSet
EndChar

StartChar: ampersand
Encoding: 38 38 125
Width: 1810
VWidth: 0
Flags: W
PickledData: "(dp1
S'com.typemytype.robofont.layerData'
p2
(dp3
s."
LayerCount: 2
Fore
SplineSet
565 143 m 0
 422 143 344 240 344 342 c 0
 344 483 373 520 635 690 c 1
 874 334 l 1
 755 221 657 143 565 143 c 0
840 1395 m 0
 922 1395 973 1325 975 1229 c 1
 975 1223 l 2
 975 1088 834 1014 721 926 c 1
 682 1002 631 1108 631 1188 c 0
 631 1329 729 1395 840 1395 c 0
1343 -29 m 0
 1591 -29 1651 141 1651 434 c 2
 1651 518 l 1
 1520 518 l 1
 1520 375 l 2
 1520 164 1442 145 1364 137 c 1
 1356 137 l 2
 1290 137 1178 207 1106 334 c 1
 1548 862 l 1
 1714 862 l 1
 1714 958 l 1
 1139 958 l 1
 1139 862 l 1
 1339 862 l 1
 1014 465 l 1
 797 782 l 1
 975 903 1137 1047 1147 1217 c 1
 1147 1237 l 2
 1147 1399 1007 1509 823 1509 c 2
 809 1509 l 1
 598 1503 432 1368 432 1167 c 0
 432 1097 479 963 549 848 c 1
 350 721 115 633 115 379 c 0
 115 148 267 -25 541 -25 c 2
 559 -25 l 1
 756 -19 860 103 971 199 c 1
 1088 39 1226 -29 1343 -29 c 0
EndSplineSet
EndChar

StartChar: approxequal
Encoding: 8776 8776 127
Width: 1060
VWidth: 0
Flags: W
PickledData: "(dp1
S'com.typemytype.robofont.layerData'
p2
(dp3
s."
LayerCount: 2
Fore
SplineSet
788 928 m 0
 882 928 891 977 891 1071 c 1
 1016 1071 l 1
 1016 815 932 752 758 752 c 0
 602 752 356 887 272 887 c 0
 178 887 170 846 170 752 c 1
 45 752 l 1
 45 1006 127 1073 303 1073 c 0
 455 1073 702 928 788 928 c 0
EndSplineSet
EndChar

StartChar: asciicircum
Encoding: 94 94 129
Width: 921
VWidth: 0
Flags: W
PickledData: "(dp1
S'com.typemytype.robofont.layerData'
p2
(dp3
s."
LayerCount: 2
Fore
SplineSet
408 1116 m 1
 53 315 l 1
 219 315 l 1
 498 975 l 1
 760 315 l 1
 930 315 l 1
 604 1116 l 1
 408 1116 l 1
EndSplineSet
EndChar

StartChar: asciitilde
Encoding: 126 126 130
Width: 1060
VWidth: 0
Flags: W
PickledData: "(dp1
S'com.typemytype.robofont.layerData'
p2
(dp3
s."
LayerCount: 2
Fore
SplineSet
788 928 m 0
 882 928 891 977 891 1071 c 1
 1016 1071 l 1
 1016 815 932 752 758 752 c 0
 602 752 356 887 272 887 c 0
 178 887 170 846 170 752 c 1
 45 752 l 1
 45 1006 127 1073 303 1073 c 0
 455 1073 702 928 788 928 c 0
EndSplineSet
EndChar

StartChar: asterisk
Encoding: 42 42 131
Width: 1615
VWidth: 0
Flags: W
PickledData: "(dp1
S'com.typemytype.robofont.layerData'
p2
(dp3
s."
LayerCount: 2
Fore
SplineSet
1104 311 m 1
 1276 465 l 1
 893 862 l 1
 1411 1024 l 1
 1329 1219 l 1
 852 946 l 1
 918 1479 l 1
 698 1479 l 1
 764 946 l 1
 287 1219 l 1
 205 1024 l 1
 723 862 l 1
 340 465 l 1
 512 311 l 1
 808 796 l 1
 1104 311 l 1
EndSplineSet
EndChar

StartChar: at
Encoding: 64 64 132
Width: 1642
VWidth: 0
Flags: W
PickledData: "(dp1
S'com.typemytype.robofont.layerData'
p2
(dp3
s."
LayerCount: 2
Fore
SplineSet
1471 797 m 0
 1471 507 1309 377 1233 377 c 0
 1170 377 1149 424 1149 498 c 0
 1149 543 1259 1126 1266 1163 c 1
 1106 1163 l 1
 1098 1138 1071 1063 1071 1063 c 1
 1071 1063 925 1212 870 1212 c 0
 605 1212 381 879 381 608 c 0
 381 385 522 303 643 303 c 0
 848 303 922 402 985 547 c 1
 995 369 1067 285 1208 285 c 0
 1470 285 1612 526 1612 795 c 0
 1612 1134 1385 1516 889 1516 c 0
 440 1516 37 1149 37 686 c 0
 37 287 316 -31 817 -31 c 0
 983 -31 1211 24 1348 113 c 1
 1348 120 1302 175 1286 195 c 1
 1169 124 973 82 836 82 c 0
 385 82 183 360 183 660 c 0
 183 1015 446 1401 897 1401 c 0
 1231 1401 1471 1130 1471 797 c 0
557 631 m 0
 557 826 704 1096 858 1096 c 0
 930 1096 1032 961 1032 961 c 1
 1030 947 985 684 985 682 c 0
 962 584 832 422 709 422 c 0
 649 422 557 476 557 631 c 0
EndSplineSet
EndChar

StartChar: b
Encoding: 98 98 134
Width: 1185
VWidth: 0
Flags: W
PickledData: "(dp1
S'com.typemytype.robofont.layerData'
p2
(dp3
s."
LayerCount: 2
Fore
SplineSet
616 989 m 0
 809 989 879 743 879 524 c 0
 879 311 788 94 616 94 c 0
 450 94 350 314 350 584 c 0
 350 750 430 989 616 989 c 0
657 -27 m 0
 923 -27 1108 218 1108 537 c 0
 1108 865 929 1102 647 1102 c 1
 528 1094 418 1042 350 942 c 1
 350 1505 l 1
 -72 1505 l 1
 -72 1382 l 1
 135 1382 l 1
 135 0 l 1
 227 0 l 1
 305 199 l 1
 375 35 524 -27 657 -27 c 0
EndSplineSet
EndChar

StartChar: backslash
Encoding: 92 92 135
Width: 1191
VWidth: 0
Flags: W
PickledData: "(dp1
S'com.typemytype.robofont.layerData'
p2
(dp3
s."
LayerCount: 2
Fore
SplineSet
887 1597 m 1
 1006 1561 l 1
 432 -170 l 1
 313 -133 l 1
 887 1597 l 1
EndSplineSet
EndChar

StartChar: bar
Encoding: 124 124 136
Width: 761
VWidth: 0
Flags: W
PickledData: "(dp1
S'com.typemytype.robofont.layerData'
p2
(dp3
s."
LayerCount: 2
Fore
SplineSet
471 1606 m 1
 291 1606 l 1
 291 -246 l 1
 471 -246 l 1
 471 1606 l 1
EndSplineSet
EndChar

StartChar: braceleft
Encoding: 123 123 137
Width: 886
VWidth: 0
Flags: W
PickledData: "(dp1
S'com.typemytype.robofont.layerData'
p2
(dp3
s."
LayerCount: 2
Fore
SplineSet
438 625 m 1
 571 656 584 748 584 1014 c 0
 584 1372 594 1497 856 1497 c 1
 856 1583 l 1
 428 1583 358 1415 358 1014 c 0
 358 725 381 692 242 692 c 2
 127 692 l 1
 127 557 l 1
 242 557 l 2
 381 557 358 525 358 236 c 0
 358 -165 428 -334 856 -334 c 1
 856 -248 l 1
 594 -248 584 -122 584 236 c 0
 584 502 571 594 438 625 c 1
EndSplineSet
EndChar

StartChar: braceleft.001
Encoding: 65537 -1 138
Width: 2048
VWidth: 0
Flags: W
PickledData: "(dp1
S'com.typemytype.robofont.layerData'
p2
(dp3
s."
LayerCount: 2
Fore
SplineSet
341 625 m 1
 474 656 487 748 487 1014 c 0
 487 1372 498 1497 760 1497 c 1
 760 1583 l 1
 332 1583 262 1415 262 1014 c 0
 262 725 284 692 145 692 c 2
 31 692 l 1
 31 557 l 1
 145 557 l 2
 284 557 262 525 262 236 c 0
 262 -165 332 -334 760 -334 c 1
 760 -248 l 1
 498 -248 487 -122 487 236 c 0
 487 502 474 594 341 625 c 1
EndSplineSet
EndChar

StartChar: braceright
Encoding: 125 125 139
Width: 886
VWidth: 0
Flags: W
PickledData: "(dp1
S'com.typemytype.robofont.layerData'
p2
(dp3
s."
LayerCount: 2
Fore
SplineSet
494 625 m 1
 361 594 303 502 303 236 c 0
 303 -122 293 -248 31 -248 c 1
 31 -334 l 1
 459 -334 528 -165 528 236 c 0
 528 525 533 565 672 565 c 2
 760 565 l 1
 760 684 l 1
 672 684 l 2
 533 684 528 725 528 1014 c 0
 528 1415 459 1583 31 1583 c 1
 31 1497 l 1
 293 1497 303 1372 303 1014 c 0
 303 748 361 656 494 625 c 1
EndSplineSet
EndChar

StartChar: bracketleft
Encoding: 91 91 140
Width: 1423
VWidth: 0
Flags: W
PickledData: "(dp1
S'com.typemytype.robofont.layerData'
p2
(dp3
s."
LayerCount: 2
Fore
SplineSet
1073 -246 m 2
 1073 -109 l 1
 563 -109 l 1
 563 1464 l 1
 1073 1464 l 1
 1073 1602 l 2
 1073 1604 328 1602 328 1602 c 1
 328 -246 l 1
 328 -246 1073 -248 1073 -246 c 2
EndSplineSet
EndChar

StartChar: bracketright
Encoding: 93 93 141
Width: 1423
VWidth: 0
Flags: W
PickledData: "(dp1
S'com.typemytype.robofont.layerData'
p2
(dp3
s."
LayerCount: 2
Fore
SplineSet
328 1602 m 2
 328 1464 l 1
 838 1464 l 1
 838 -109 l 1
 328 -109 l 1
 328 -246 l 2
 328 -248 1073 -246 1073 -246 c 1
 1073 1602 l 1
 1073 1602 328 1604 328 1602 c 2
EndSplineSet
EndChar

StartChar: breve
Encoding: 728 728 142
Width: 1189
VWidth: 0
Flags: W
PickledData: "(dp1
S'com.typemytype.robofont.layerData'
p2
(dp3
s."
LayerCount: 2
Fore
SplineSet
819 1444 m 1
 815 1348 742 1202 580 1202 c 0
 416 1202 342 1346 338 1448 c 1
 467 1448 l 1
 469 1368 523 1321 578 1321 c 0
 631 1321 686 1368 690 1444 c 1
 819 1444 l 1
578.5 1073 m 0
EndSplineSet
EndChar

StartChar: brokenbar
Encoding: 166 166 143
Width: 651
VWidth: 0
Flags: W
PickledData: "(dp1
S'com.typemytype.robofont.layerData'
p2
(dp3
s."
LayerCount: 2
Fore
SplineSet
416 1606 m 1
 236 1606 l 1
 236 911 l 1
 416 911 l 1
 416 1606 l 1
416 449 m 1
 236 449 l 1
 236 -246 l 1
 416 -246 l 1
 416 449 l 1
EndSplineSet
EndChar

StartChar: bullet
Encoding: 8226 8226 144
Width: 827
VWidth: 0
Flags: W
PickledData: "(dp1
S'com.typemytype.robofont.layerData'
p2
(dp3
s."
LayerCount: 2
Fore
SplineSet
98 778 m 0
 98 942 213 1092 414 1092 c 0
 613 1092 729 942 729 778 c 0
 729 614 613 463 414 463 c 0
 217 463 98 610 98 778 c 0
EndSplineSet
EndChar

StartChar: c
Encoding: 99 99 145
Width: 1118
VWidth: 0
Flags: W
PickledData: "(dp1
S'com.typemytype.robofont.layerData'
p2
(dp3
s."
LayerCount: 2
Fore
SplineSet
74 516 m 0
 74 821 258 1104 616 1104 c 0
 804 1104 1030 994 1040 752 c 1
 1040 683 990 590 883 590 c 0
 799 590 727 645 729 735 c 0
 731 825 809 868 883 868 c 1
 842 934 760 989 651 989 c 0
 410 989 301 762 301 549 c 0
 301 293 426 135 637 135 c 0
 809 135 925 292 950 371 c 1
 1063 334 l 1
 1014 121 848 -29 592 -29 c 0
 305 -29 74 182 74 516 c 0
559 1073 m 0
559 0 m 0
EndSplineSet
EndChar

StartChar: caron
Encoding: 711 711 147
Width: 1269
VWidth: 0
Flags: W
PickledData: "(dp1
S'com.typemytype.robofont.layerData'
p2
(dp3
s."
LayerCount: 2
Fore
SplineSet
770 1333 m 1
 848 1403 997 1602 997 1602 c 1
 1096 1509 l 1
 770 1159 l 1
 442 1516 l 1
 541 1606 l 1
 541 1606 692 1403 770 1333 c 1
769 1073 m 0
EndSplineSet
EndChar

StartChar: cedilla
Encoding: 184 184 152
Width: 337
VWidth: 0
Flags: W
PickledData: "(dp1
S'com.typemytype.robofont.layerData'
p2
(dp3
s."
LayerCount: 2
Fore
SplineSet
307 -276 m 2
 307 0 l 1
 268 0 l 2
 147 0 59 -96 59 -168 c 0
 59 -217 154 -264 154 -307 c 0
 154 -336 74 -361 8 -373 c 1
 37 -444 l 1
 37 -444 307 -405 307 -276 c 2
157.5 0 m 0
EndSplineSet
EndChar

StartChar: cent
Encoding: 162 162 153
Width: 1146
VWidth: 0
Flags: W
PickledData: "(dp1
S'com.typemytype.robofont.layerData'
p2
(dp3
s."
LayerCount: 2
Fore
SplineSet
559 1290 m 1
 647 1290 l 1
 647 -213 l 1
 559 -213 l 1
 559 1290 l 1
EndSplineSet
Refer: 145 99 N 1 0 0 1 0 0 2
EndChar

StartChar: ch
Encoding: 65538 -1 154
Width: 2381
VWidth: 0
Flags: W
PickledData: "(dp1
S'com.typemytype.robofont.layerData'
p2
(dp3
s."
LayerCount: 2
Fore
SplineSet
1063 334 m 1
 950 371 l 1
 925 293 809 135 637 135 c 0
 426 135 301 293 301 549 c 0
 301 762 409 989 651 989 c 0
 760 989 842 934 883 868 c 1
 809 868 731 825 729 735 c 0
 727 645 799 590 883 590 c 0
 989 590 1040 684 1040 752 c 1
 1036 848 997 924 942 979 c 0
 858 1063 815 1180 815 1243 c 0
 815 1349 895 1413 1255 1413 c 1
 1255 117 l 1
 1071 117 l 1
 1071 0 l 1
 1665 0 l 1
 1665 117 l 1
 1470 117 l 1
 1470 598 l 2
 1470 803 1643 961 1778 961 c 0
 1866 961 1937 895 1937 731 c 2
 1937 117 l 1
 1743 117 l 1
 1743 0 l 1
 2367 0 l 1
 2367 117 l 1
 2152 117 l 1
 2152 723 l 2
 2152 1067 1936 1102 1821 1102 c 0
 1702 1102 1550 1047 1470 883 c 1
 1470 1536 l 1
 1278 1536 l 2
 823 1536 704 1440 688 1276 c 0
 682 1213 725 1142 758 1083 c 1
 711 1097 663 1104 616 1104 c 0
 258 1104 74 821 74 516 c 0
 74 182 305 -29 592 -29 c 0
 848 -29 1014 121 1063 334 c 1
EndSplineSet
EndChar

StartChar: circumflex
Encoding: 710 710 155
Width: 1269
VWidth: 0
Flags: W
PickledData: "(dp1
S'com.typemytype.robofont.layerData'
p2
(dp3
s."
LayerCount: 2
Fore
SplineSet
768 1432 m 1
 690 1362 541 1163 541 1163 c 1
 442 1255 l 1
 768 1606 l 1
 1096 1249 l 1
 997 1159 l 1
 997 1159 846 1362 768 1432 c 1
769 1073 m 0
EndSplineSet
EndChar

StartChar: ck
Encoding: 65539 -1 156
Width: 2351
VWidth: 0
Flags: W
PickledData: "(dp1
S'com.typemytype.robofont.layerData'
p2
(dp3
s."
LayerCount: 2
Fore
SplineSet
1063 334 m 1
 950 371 l 1
 925 293 809 135 637 135 c 0
 426 135 301 293 301 549 c 0
 301 762 409 989 651 989 c 0
 760 989 842 934 883 868 c 1
 809 868 731 825 729 735 c 0
 727 645 799 590 883 590 c 0
 989 590 1040 684 1040 752 c 1
 1036 848 997 924 942 979 c 0
 858 1063 815 1180 815 1243 c 0
 815 1349 895 1413 1255 1413 c 2
 1290 1413 l 1
 1290 117 l 1
 1087 117 l 1
 1087 0 l 1
 1675 0 l 1
 1675 117 l 1
 1505 117 l 1
 1505 418 l 1
 1671 545 l 1
 1872 199 l 1
 1958 70 2045 -20 2195 -20 c 0
 2252 -20 2302 -18 2374 23 c 1
 2345 158 l 1
 2314 144 2288 143 2263 139 c 0
 2079 112 1937 434 1798 629 c 1
 2144 956 l 1
 2335 956 l 1
 2335 1073 l 1
 1735 1073 l 1
 1735 956 l 1
 1923 956 l 1
 1505 571 l 1
 1505 1536 l 1
 1278 1536 l 2
 823 1536 704 1440 688 1276 c 0
 682 1213 725 1142 758 1083 c 1
 711 1097 663 1104 616 1104 c 0
 258 1104 74 821 74 516 c 0
 74 182 305 -29 592 -29 c 0
 848 -29 1014 121 1063 334 c 1
EndSplineSet
EndChar

StartChar: colon
Encoding: 58 58 157
Width: 665
VWidth: 0
Flags: W
PickledData: "(dp1
S'com.typemytype.robofont.layerData'
p2
(dp3
s."
LayerCount: 2
Fore
SplineSet
184 922 m 0
 184 1004 250 1071 332 1071 c 0
 412 1071 481 1004 481 922 c 0
 481 842 412 774 332 774 c 0
 250 774 184 842 184 922 c 0
184 147 m 0
 184 229 250 297 332 297 c 0
 412 297 481 229 481 147 c 0
 481 67 412 0 332 0 c 0
 250 0 184 67 184 147 c 0
EndSplineSet
EndChar

StartChar: comma
Encoding: 44 44 158
Width: 473
VWidth: 0
Flags: W
PickledData: "(dp1
S'com.typemytype.robofont.layerData'
p2
(dp3
s."
LayerCount: 2
Fore
SplineSet
188 -174 m 1
 243 -141 317 -73 317 -16 c 0
 317 -6 315 4 309 12 c 1
 286 -2 256 -12 225 -12 c 0
 155 -12 92 53 92 121 c 0
 92 197 170 264 242 264 c 0
 324 264 430 200 430 55 c 0
 430 -39 381 -154 250 -244 c 1
 244 -246 240 -250 238 -252 c 1
 188 -174 l 1
EndSplineSet
EndChar

StartChar: copyright
Encoding: 169 169 159
Width: 1703
VWidth: 0
Flags: W
PickledData: "(dp1
S'com.typemytype.robofont.layerData'
p2
(dp3
s."
LayerCount: 2
Fore
SplineSet
1245 602 m 1
 1167 641 l 1
 1142 543 1044 430 903 430 c 1
 727 438 627 608 627 772 c 0
 627 995 737 1126 891 1126 c 0
 995 1126 1065 1077 1100 1024 c 1
 1061 1024 981 992 981 918 c 0
 981 857 1033 815 1092 815 c 0
 1172 815 1219 881 1219 934 c 0
 1219 1104 1049 1208 893 1208 c 0
 639 1208 465 1024 463 768 c 1
 463 524 643 328 883 326 c 1
 1053 326 1204 430 1245 602 c 1
854 70 m 0
 483 70 178 374 178 745 c 0
 178 1118 483 1421 854 1421 c 0
 1227 1421 1530 1118 1530 745 c 0
 1530 374 1227 70 854 70 c 0
852 -27 m 0
 1274 -27 1620 321 1620 743 c 0
 1620 1163 1274 1509 852 1509 c 0
 432 1509 84 1163 84 743 c 0
 84 321 432 -27 852 -27 c 0
EndSplineSet
EndChar

StartChar: currency
Encoding: 164 164 160
Width: 1189
VWidth: 0
Flags: W
PickledData: "(dp1
S'com.typemytype.robofont.layerData'
p2
(dp3
s."
LayerCount: 2
Fore
SplineSet
1012 578 m 1
 1071 637 l 1
 977 731 l 1
 1040 813 1073 918 1073 1020 c 0
 1073 1129 1041 1235 973 1319 c 1
 1071 1417 l 1
 1012 1477 l 1
 913 1378 l 1
 841 1439 744 1477 621 1477 c 0
 498 1477 400 1439 328 1380 c 1
 231 1477 l 1
 172 1417 l 1
 266 1323 l 1
 198 1239 164 1133 164 1024 c 0
 164 920 198 813 264 729 c 1
 172 637 l 1
 231 578 l 1
 324 670 l 1
 400 611 498 571 623 571 c 0
 748 571 846 611 918 672 c 1
 1012 578 l 1
621 1368 m 0
 805 1368 936 1235 936 1020 c 0
 936 813 805 686 623 686 c 0
 439 686 305 809 305 1020 c 0
 305 1235 437 1368 621 1368 c 0
EndSplineSet
EndChar

StartChar: d
Encoding: 100 100 161
Width: 1236
VWidth: 0
Flags: W
PickledData: "(dp1
S'com.typemytype.robofont.layerData'
p2
(dp3
s."
LayerCount: 2
Fore
SplineSet
831 170 m 1
 870 0 l 1
 1225 0 l 1
 1225 115 l 1
 1044 115 l 1
 1044 1505 l 1
 594 1505 l 1
 594 1382 l 1
 829 1382 l 1
 829 942 l 1
 761 1042 644 1102 535 1102 c 0
 252 1102 80 873 80 537 c 0
 80 199 254 -27 520 -27 c 0
 629 -27 759 37 831 170 c 1
844 569 m 1
 844 549 l 2
 844 289 725 100 563 100 c 0
 389 100 309 317 309 532 c 0
 309 749 381 989 571 989 c 0
 757 989 840 764 844 569 c 1
618 537 m 0
EndSplineSet
EndChar

StartChar: dagger
Encoding: 8224 8224 162
Width: 956
VWidth: 0
Flags: W
PickledData: "(dp1
S'com.typemytype.robofont.layerData'
p2
(dp3
s."
LayerCount: 2
Fore
SplineSet
393 96 m 1
 563 96 l 1
 563 926 l 1
 895 926 l 1
 895 1073 l 1
 563 1073 l 1
 563 1479 l 1
 393 1479 l 1
 393 1073 l 1
 61 1073 l 1
 61 926 l 1
 393 926 l 1
 393 96 l 1
EndSplineSet
EndChar

StartChar: daggerdbl
Encoding: 8225 8225 163
Width: 956
VWidth: 0
Flags: W
PickledData: "(dp1
S'com.typemytype.robofont.layerData'
p2
(dp3
s."
LayerCount: 2
Fore
SplineSet
393 96 m 1
 563 96 l 1
 563 473 l 1
 895 473 l 1
 895 621 l 1
 563 621 l 1
 563 991 l 1
 895 991 l 1
 895 1139 l 1
 563 1139 l 1
 563 1479 l 1
 393 1479 l 1
 393 1139 l 1
 61 1139 l 1
 61 991 l 1
 393 991 l 1
 393 621 l 1
 61 621 l 1
 61 473 l 1
 393 473 l 1
 393 96 l 1
EndSplineSet
EndChar

StartChar: degree
Encoding: 176 176 166
Width: 757
VWidth: 0
Flags: W
PickledData: "(dp1
S'com.typemytype.robofont.layerData'
p2
(dp3
s."
LayerCount: 2
Fore
SplineSet
379 1421 m 0
 293 1421 201 1352 201 1217 c 0
 201 1080 289 1018 377 1018 c 0
 463 1018 557 1086 557 1217 c 0
 557 1352 465 1421 379 1421 c 0
63 1217 m 0
 63 1381 178 1509 379 1509 c 0
 578 1509 694 1381 694 1217 c 0
 694 1053 578 922 379 922 c 0
 182 922 63 1049 63 1217 c 0
EndSplineSet
EndChar

StartChar: dieresis
Encoding: 168 168 167
Width: 1056
VWidth: 0
Flags: W
PickledData: "(dp1
S'com.typemytype.robofont.layerData'
p2
(dp3
s."
LayerCount: 2
Fore
SplineSet
172 1317 m 0
 172 1393 233 1456 309 1456 c 0
 383 1456 446 1393 446 1317 c 0
 446 1243 383 1180 309 1180 c 0
 233 1180 172 1243 172 1317 c 0
647 1317 m 0
 647 1393 708 1456 784 1456 c 0
 858 1456 924 1393 924 1317 c 0
 924 1243 858 1180 784 1180 c 0
 708 1180 647 1243 647 1317 c 0
548 1073 m 0
EndSplineSet
EndChar

StartChar: divide
Encoding: 247 247 168
Width: 913
VWidth: 0
Flags: W
PickledData: "(dp1
S'com.typemytype.robofont.layerData'
p2
(dp3
s."
LayerCount: 2
Fore
SplineSet
338 942 m 0
 338 1014 395 1073 467 1073 c 0
 537 1073 598 1014 598 942 c 0
 598 872 537 813 467 813 c 0
 395 813 338 872 338 942 c 0
338 268 m 0
 338 340 395 399 467 399 c 0
 537 399 598 340 598 268 c 0
 598 198 537 139 467 139 c 0
 395 139 338 198 338 268 c 0
788 528 m 1
 788 684 l 1
 125 684 l 1
 125 528 l 1
 788 528 l 1
EndSplineSet
EndChar

StartChar: dollar
Encoding: 36 36 169
Width: 1394
VWidth: 0
Flags: W
PickledData: "(dp1
S'com.typemytype.robofont.layerData'
p2
(dp3
s."
LayerCount: 2
Fore
SplineSet
639 -193 m 1
 735 -190 l 1
 735 -25 l 1
 1091 -9 1264 137 1264 385 c 1
 1262 598 1171 739 735 848 c 1
 735 1380 l 1
 839 1374 942 1346 1022 1276 c 1
 959 1276 885 1237 885 1120 c 0
 885 1030 969 979 1053 979 c 0
 1164 979 1223 1067 1223 1180 c 0
 1223 1399 944 1489 735 1505 c 1
 735 1661 l 1
 639 1659 l 1
 639 1509 l 1
 309 1501 108 1325 106 1085 c 0
 104 895 205 739 621 637 c 0
 627 635 633 633 639 633 c 1
 639 109 l 1
 520 115 398 145 287 215 c 1
 369 225 428 268 428 360 c 0
 428 442 360 526 268 526 c 0
 176 526 88 451 88 336 c 0
 88 100 410 -15 639 -27 c 1
 639 -193 l 1
735 109 m 1
 735 608 l 1
 944 553 1067 501 1067 362 c 0
 1067 208 919 121 741 109 c 1
 735 109 l 1
639 870 m 1
 348 938 315 1024 315 1126 c 1
 319 1276 469 1366 639 1380 c 1
 639 870 l 1
EndSplineSet
EndChar

StartChar: dotaccent
Encoding: 729 729 170
Width: 669
VWidth: 0
Flags: W
PickledData: "(dp1
S'com.typemytype.robofont.layerData'
p2
(dp3
s."
LayerCount: 2
Fore
SplineSet
186 1358 m 0
 186 1440 252 1507 334 1507 c 0
 414 1507 483 1440 483 1358 c 0
 483 1278 414 1210 334 1210 c 0
 252 1210 186 1278 186 1358 c 0
334.5 1073 m 0
EndSplineSet
EndChar

StartChar: dotlessi
Encoding: 305 305 171
Width: 671
VWidth: 0
Flags: W
PickledData: "(dp1
S'com.typemytype.robofont.layerData'
p2
(dp3
s."
LayerCount: 2
Fore
SplineSet
461 1073 m 1
 461 117 l 1
 657 117 l 1
 657 0 l 1
 53 0 l 1
 53 117 l 1
 246 117 l 1
 246 961 l 1
 51 961 l 1
 51 1073 l 1
 461 1073 l 1
336 1073 m 0
604 10 m 0
EndSplineSet
EndChar

StartChar: dotlessj
Encoding: 567 567 172
Width: 665
VWidth: 0
Flags: W
PickledData: "(dp1
S'com.typemytype.robofont.layerData'
p2
(dp3
s."
LayerCount: 2
Fore
SplineSet
160 -471 m 2
 168 -471 l 1
 365 -469 512 -340 512 -90 c 2
 512 1073 l 1
 53 1073 l 1
 53 956 l 1
 297 956 l 1
 297 -121 l 2
 297 -326 203 -362 133 -362 c 0
 94 -362 61 -350 61 -350 c 1
 108 -330 119 -268 119 -223 c 0
 119 -149 61 -113 2 -113 c 0
 -68 -113 -143 -160 -143 -254 c 0
 -143 -387 -41 -471 160 -471 c 2
333 1073 m 0
EndSplineSet
EndChar

StartChar: e
Encoding: 101 101 173
Width: 1150
VWidth: 0
Flags: W
PickledData: "(dp1
S'com.typemytype.robofont.layerData'
p2
(dp3
s."
LayerCount: 2
Fore
SplineSet
310 659 m 1
 326 856 445 985 590 985 c 0
 733 985 848 856 854 659 c 1
 310 659 l 1
74 523 m 0
 74 244 258 -29 596 -29 c 0
 838 -29 1002 117 1053 334 c 1
 936 371 l 1
 891 205 746 123 617 123 c 0
 397 123 303 321 303 543 c 2
 303 551 l 1
 1074 551 l 1
 1068 911 854 1104 584 1104 c 0
 254 1104 74 823 74 523 c 0
575 1073 m 0
575 0 m 0
1035 10 m 0
EndSplineSet
EndChar

StartChar: eight
Encoding: 56 56 181
Width: 1234
VWidth: 0
Flags: W
PickledData: "(dp1
S'com.typemytype.robofont.layerData'
p2
(dp3
s."
LayerCount: 2
Fore
SplineSet
1141 358 m 1
 1141 350 l 2
 1141 123 946 -29 612 -27 c 0
 309 -25 94 115 94 332 c 0
 94 593.157 361.066 718.808 463.059 756.968 c 1
 303.19 852.005 164 968.446 164 1163 c 0
 164 1374 338 1509 623 1509 c 0
 895 1509 1077 1344 1077 1143 c 0
 1077 957.65 917.245 847.859 789.391 789.671 c 1
 968.633 686.358 1135.5 560.476 1141 358 c 1
669.838 855.719 m 1
 759.023 898.642 893 990.212 893 1153 c 0
 893 1272 786 1392 600 1382 c 0
 461 1374 348 1294 348 1151 c 0
 348 1030.38 499.36 947.933 669.838 855.719 c 1
583.5 689.619 m 1
 484.043 636.887 313 523.48 313 362 c 0
 313 188 432 106 612 106 c 0
 790 106 932 174 932 350 c 0
 932 504.818 762.965 592.726 583.5 689.619 c 1
EndSplineSet
EndChar

StartChar: equal
Encoding: 61 61 185
Width: 919
VWidth: 0
Flags: W
PickledData: "(dp1
S'com.typemytype.robofont.layerData'
p2
(dp3
s."
LayerCount: 2
Fore
SplineSet
111 860 m 1
 809 860 l 1
 809 723 l 1
 111 723 l 1
 111 860 l 1
111 496 m 1
 809 496 l 1
 809 358 l 1
 111 358 l 1
 111 496 l 1
EndSplineSet
EndChar

StartChar: eth
Encoding: 240 240 186
Width: 1245
VWidth: 0
Flags: W
PickledData: "(dp1
S'com.typemytype.robofont.layerData'
p2
(dp3
s."
LayerCount: 2
Fore
SplineSet
246 1495 m 1
 318 1511 388 1520 451 1520 c 0
 621.12 1520 761.585 1463.63 870.145 1366.57 c 1
 1126 1487 l 1
 1161 1403 l 1
 936.63 1297.39 l 1
 1068.19 1138.65 1137 907.755 1137 647 c 0
 1137 147 910 -20 623 -20 c 0
 258 -20 123 258 123 502 c 0
 123 760 283 1016 612 1016 c 0
 782 1016 848 930 891 897 c 1
 891 897 864.15 1069.12 753.899 1211.38 c 1
 547 1114 l 1
 512 1198 l 1
 689.067 1281.34 l 1
 614.228 1348.32 513.041 1397 377 1397 c 0
 342 1397 305 1392 266 1386 c 1
 246 1495 l 1
623 879 m 1
 463 871 352 694 352 489 c 0
 352 280 432 104 629 104 c 0
 832 104 913 272 913 598 c 0
 913 637 913 678 909 721 c 1
 858 801 756 879 623 879 c 1
EndSplineSet
EndChar

StartChar: exclam
Encoding: 33 33 187
Width: 856
VWidth: 0
Flags: W
PickledData: "(dp1
S'com.typemytype.robofont.layerData'
p2
(dp3
s."
LayerCount: 2
Fore
SplineSet
471 451 m 1
 399 451 l 1
 305 1479 l 1
 565 1479 l 1
 471 451 l 1
291 127 m 0
 291 209 356 276 438 276 c 0
 518 276 588 209 588 127 c 0
 588 47 518 -20 438 -20 c 0
 356 -20 291 47 291 127 c 0
EndSplineSet
EndChar

StartChar: f
Encoding: 102 102 189
Width: 786
VWidth: 0
Flags: W
PickledData: "(dp1
S'com.typemytype.robofont.layerData'
p2
(dp3
s."
LayerCount: 2
Fore
SplineSet
711 117 m 1
 461 117 l 1
 461 956 l 1
 774 956 l 1
 782 1073 l 1
 455 1073 l 1
 455 1243 l 2
 455 1427 536 1499 653 1499 c 0
 700 1499 760 1483 791 1454 c 1
 719 1436 680 1374 680 1331 c 0
 680 1251 745 1196 815 1196 c 0
 897 1196 965 1259 965 1368 c 0
 965 1470 854 1583 623 1583 c 0
 342 1583 246 1413 246 1073 c 1
 51 1073 l 1
 51 956 l 1
 246 956 l 1
 246 117 l 1
 51 117 l 1
 51 0 l 1
 711 0 l 1
 711 117 l 1
EndSplineSet
EndChar

StartChar: ff
Encoding: 65540 -1 190
Width: 1406
VWidth: 0
Flags: W
PickledData: "(dp1
S'com.typemytype.robofont.layerData'
p2
(dp3
s."
LayerCount: 2
Fore
SplineSet
614 0 m 1
 614 117 l 1
 483 117 l 1
 483 961 l 1
 860 961 l 1
 860 117 l 1
 709 117 l 1
 709 0 l 1
 1268 0 l 1
 1268 117 l 1
 1075 117 l 1
 1075 961 l 1
 1323 961 l 1
 1323 1073 l 1
 1069 1073 l 1
 1069 1243 l 2
 1069 1427 1161 1499 1278 1499 c 0
 1341 1499 1417 1468 1419 1415 c 1
 1364 1415 1296 1370 1296 1294 c 0
 1296 1214 1355 1159 1425 1159 c 0
 1507 1159 1581 1216 1581 1325 c 0
 1581 1442 1509 1583 1247 1583 c 0
 1163 1583 1059 1540 979 1454 c 1
 928 1524 819 1583 674 1583 c 0
 393 1583 268 1413 268 1073 c 1
 74 1073 l 1
 74 961 l 1
 268 961 l 1
 268 117 l 1
 90 117 l 1
 90 0 l 1
 614 0 l 1
477 1073 m 1
 477 1243 l 2
 477 1427 561 1499 678 1499 c 0
 756 1499 813 1478 829 1464 c 1
 784 1429 760 1378 760 1329 c 0
 760 1276 790 1226 860 1206 c 1
 860 1073 l 1
 477 1073 l 1
EndSplineSet
EndChar

StartChar: ffi
Encoding: 65541 -1 191
Width: 1933
VWidth: 0
Flags: W
PickledData: "(dp1
S'com.typemytype.robofont.layerData'
p2
(dp3
s."
LayerCount: 2
Fore
SplineSet
629 0 m 1
 629 117 l 1
 483 117 l 1
 483 961 l 1
 903 961 l 1
 903 117 l 1
 723 117 l 1
 723 0 l 1
 1286 0 l 1
 1286 117 l 1
 1118 117 l 1
 1118 961 l 1
 1528 961 l 1
 1528 117 l 1
 1372 117 l 1
 1372 0 l 1
 1919 0 l 1
 1919 117 l 1
 1743 117 l 1
 1743 1073 l 1
 1112 1073 l 1
 1112 1243 l 2
 1112 1427 1278 1499 1395 1499 c 0
 1458 1499 1579 1468 1581 1415 c 1
 1526 1415 1452 1370 1452 1294 c 0
 1452 1214 1517 1159 1587 1159 c 0
 1669 1159 1737 1218 1737 1327 c 0
 1737 1444 1626 1583 1364 1583 c 0
 1208 1583 1102 1540 1022 1454 c 1
 971 1524 860 1583 715 1583 c 0
 434 1583 268 1413 268 1073 c 1
 74 1073 l 1
 74 961 l 1
 268 961 l 1
 268 117 l 1
 84 117 l 1
 84 0 l 1
 629 0 l 1
477 1073 m 1
 477 1243 l 2
 477 1427 602 1499 719 1499 c 0
 797 1499 856 1478 872 1464 c 1
 827 1429 803 1378 803 1329 c 0
 803 1276 833 1226 903 1206 c 1
 903 1073 l 1
 477 1073 l 1
EndSplineSet
EndChar

StartChar: ffl
Encoding: 65542 -1 192
Width: 1998
VWidth: 0
Flags: W
PickledData: "(dp1
S'com.typemytype.robofont.layerData'
p2
(dp3
s."
LayerCount: 2
Fore
SplineSet
629 0 m 1
 629 117 l 1
 483 117 l 1
 483 961 l 1
 868 961 l 1
 868 117 l 1
 737 117 l 1
 737 0 l 1
 1278 0 l 1
 1278 117 l 1
 1083 117 l 1
 1083 961 l 1
 1409 961 l 1
 1409 1073 l 1
 1077 1073 l 1
 1077 1243 l 2
 1077 1427 1200 1489 1317 1489 c 0
 1401 1489 1532 1471 1550 1403 c 1
 1550 117 l 1
 1376 117 l 1
 1376 0 l 1
 1958 0 l 1
 1958 117 l 1
 1765 117 l 1
 1765 1405 l 2
 1765 1507 1517 1583 1286 1583 c 0
 1151 1583 1051 1544 981 1466 c 1
 903 1546 796 1583 659 1583 c 0
 378 1583 268 1413 268 1073 c 1
 74 1073 l 1
 74 961 l 1
 268 961 l 1
 268 117 l 1
 74 117 l 1
 74 0 l 1
 629 0 l 1
868 1073 m 1
 477 1073 l 1
 477 1243 l 2
 477 1427 573 1499 690 1499 c 0
 753 1499 835 1474 864 1425 c 1
 796 1419 760 1364 760 1309 c 0
 760 1254 796 1196 872 1182 c 1
 870 1159 868 1112 868 1087 c 2
 868 1073 l 1
EndSplineSet
EndChar

StartChar: five
Encoding: 53 53 193
Width: 1085
VWidth: 0
Flags: W
PickledData: "(dp1
S'com.typemytype.robofont.layerData'
p2
(dp3
s."
LayerCount: 2
Fore
SplineSet
461 -303 m 1
 846 -291 1031 -55 1008 213 c 0
 990 430 850 612 459 612 c 0
 412 612 362 610 309 604 c 1
 356 903 l 1
 854 903 l 1
 913 1073 l 1
 233 1073 l 1
 158 555 l 1
 217 483 l 1
 260 489 303 494 346 494 c 0
 565 494 770 407 786 182 c 0
 800 -17 692 -172 438 -195 c 1
 420 -195 l 2
 393 -195 367 -190 338 -186 c 1
 344 -163 365 -137 365 -96 c 0
 365 -30 315 43 227 43 c 0
 127 43 86 -20 86 -100 c 1
 94 -237 254 -303 442 -303 c 2
 461 -303 l 1
EndSplineSet
EndChar

StartChar: fj
Encoding: 65543 -1 194
Width: 1282
VWidth: 0
Flags: W
PickledData: "(dp1
S'com.typemytype.robofont.layerData'
p2
(dp3
s."
LayerCount: 2
Fore
SplineSet
774 -471 m 1
 971 -469 1118 -340 1118 -90 c 2
 1118 1073 l 1
 455 1073 l 1
 455 1182 l 2
 455 1422 645 1499 762 1499 c 0
 825 1499 936 1468 938 1415 c 1
 883 1415 809 1370 809 1294 c 0
 809 1214 874 1159 944 1159 c 0
 1026 1159 1094 1222 1094 1331 c 0
 1094 1433 962 1583 731 1583 c 0
 450 1583 246 1413 246 1073 c 1
 51 1073 l 1
 51 961 l 1
 246 961 l 1
 246 117 l 1
 51 117 l 1
 51 0 l 1
 696 0 l 1
 696 117 l 1
 461 117 l 1
 461 961 l 1
 903 961 l 1
 903 -121 l 2
 903 -326 809 -362 739 -362 c 0
 700 -362 668 -350 668 -350 c 1
 715 -330 725 -268 725 -223 c 0
 725 -149 667 -113 608 -113 c 0
 538 -113 463 -160 463 -254 c 0
 463 -387 565 -471 766 -471 c 2
 774 -471 l 1
EndSplineSet
EndChar

StartChar: florin
Encoding: 402 402 195
Width: 786
VWidth: 0
Flags: W
PickledData: "(dp1
S'com.typemytype.robofont.layerData'
p2
(dp3
s."
LayerCount: 2
Fore
SplineSet
104 -389 m 0
 384 -389 460 -221 461 116 c 1
 461 956 l 1
 774 956 l 1
 782 1073 l 1
 455 1073 l 1
 455 1223 l 2
 455 1407 476 1499 593 1499 c 0
 615 1499 640 1496 663 1489 c 1
 640 1460 620 1418 620 1381 c 0
 620 1301 685 1246 755 1246 c 0
 837 1246 905 1284 905 1393 c 0
 905 1497 800 1583 606 1583 c 0
 321 1583 246 1418 246 1073 c 1
 51 1073 l 1
 51 956 l 1
 246 956 l 1
 246 -49 l 2
 246 -233 191 -305 74 -305 c 0
 49 -305 25 -300 4 -292 c 1
 36 -263 70 -210 70 -156 c 0
 70 -76 2 -30 -68 -30 c 0
 -150 -30 -218 -73 -218 -182 c 0
 -218 -284 -127 -389 104 -389 c 0
EndSplineSet
EndChar

StartChar: four
Encoding: 52 52 196
Width: 1099
VWidth: 0
Flags: W
PickledData: "(dp1
S'com.typemytype.robofont.layerData'
p2
(dp3
s."
LayerCount: 2
Fore
SplineSet
643 150 m 1
 268 150 l 1
 643 924 l 1
 643 150 l 1
1081 -250 m 1
 858 -250 l 1
 858 0 l 1
 1106 0 l 1
 1124 150 l 1
 858 150 l 1
 858 1057 l 1
 606 1087 l 1
 84 135 l 1
 109 0 l 1
 643 0 l 1
 643 -250 l 1
 403 -250 l 1
 403 -387 l 1
 1081 -387 l 1
 1081 -250 l 1
EndSplineSet
EndChar

StartChar: fraction
Encoding: 8260 8260 197
Width: 1878
VWidth: 0
Flags: W
PickledData: "(dp1
S'com.typemytype.robofont.layerData'
p2
(dp3
s."
LayerCount: 2
Fore
SplineSet
1157 352 m 1
 1393 696 l 1
 1393 352 l 1
 1157 352 l 1
1649 0 m 1
 1649 86 l 1
 1518 86 l 1
 1518 268 l 1
 1649 268 l 1
 1649 352 l 1
 1518 352 l 1
 1518 805 l 1
 1360 805 l 1
 1044 360 l 1
 1044 268 l 1
 1393 268 l 1
 1393 86 l 1
 1247 86 l 1
 1247 0 l 1
 1649 0 l 1
453 729 m 1
 664 735 801 848 801 995 c 0
 801 1101 727 1206 563 1206 c 2
 549 1206 l 1
 668 1229 735 1305 735 1389 c 1
 733 1483 659 1583 481 1583 c 0
 327 1583 209 1480 209 1384 c 2
 209 1374 l 1
 213 1331 241 1280 307 1280 c 0
 360 1280 403 1319 403 1370 c 0
 403 1429 357 1450 322 1456 c 1
 367 1497 420 1516 467 1516 c 0
 549 1516 616 1464 616 1380 c 0
 616 1296 551 1237 418 1217 c 1
 432 1141 l 1
 455 1145 476 1147 494 1147 c 2
 504 1147 l 1
 631 1139 653 1067 653 995 c 2
 653 991 l 2
 653 891 571 803 442 803 c 0
 424 803 404 805 381 809 c 1
 391 823 397 846 397 866 c 0
 397 907 364 944 311 944 c 0
 250 944 225 905 225 856 c 1
 229 774 327 729 440 729 c 2
 453 729 l 1
344 -2 m 1
 444 -61 l 1
 1509 1419 l 1
 1409 1479 l 1
 344 -2 l 1
EndSplineSet
EndChar

StartChar: g
Encoding: 103 103 198
Width: 1198
VWidth: 0
Flags: W
PickledData: "(dp1
S'com.typemytype.robofont.layerData'
p2
(dp3
s."
LayerCount: 2
Fore
SplineSet
551 -535 m 0
 909 -535 1044 -250 1044 51 c 2
 1044 954 l 1
 1188 954 l 1
 1188 1073 l 1
 854 1073 l 1
 829 881 l 1
 784 1026 631 1102 522 1102 c 0
 229 1102 82 815 82 532 c 0
 82 251 225 -27 516 -27 c 2
 528 -27 l 2
 671 -27 790 86 829 201 c 1
 829 23 l 2
 829 -253 733 -430 518 -430 c 0
 467 -430 436 -422 395 -408 c 1
 432 -394 479 -334 479 -279 c 0
 479 -195 416 -139 344 -139 c 0
 262 -139 176 -184 176 -295 c 0
 176 -463 361 -535 551 -535 c 0
559 96 m 0
 366 96 301 332 301 551 c 0
 301 764 391 969 563 969 c 0
 729 969 836 782 836 512 c 0
 836 307 745 96 559 96 c 0
599 1073 m 0
EndSplineSet
EndChar

StartChar: germandbls
Encoding: 223 223 203
Width: 1314
VWidth: 0
Flags: W
PickledData: "(dp1
S'com.typemytype.robofont.layerData'
p2
(dp3
s."
LayerCount: 2
Fore
SplineSet
430 981 m 2
 430 1212 508 1354 680 1354 c 0
 807 1354 891 1280 891 1149 c 0
 891 983 635 930 627 770 c 1
 627 766 l 2
 627 606 1020 612 1026 354 c 1
 1026 348 l 2
 1026 194 887 119 561 119 c 1
 561 0 l 1
 809 0 1241 24 1241 350 c 0
 1241 661 819 711 819 770 c 0
 819 809 1075 892 1075 1130 c 0
 1075 1382 905 1489 672 1489 c 0
 381 1489 215 1317 215 981 c 2
 215 119 l 1
 68 119 l 1
 68 0 l 1
 430 0 l 1
 430 981 l 2
EndSplineSet
EndChar

StartChar: grave
Encoding: 96 96 204
Width: 1269
VWidth: 0
Flags: W
PickledData: "(dp1
S'com.typemytype.robofont.layerData'
p2
(dp3
s."
LayerCount: 2
Fore
SplineSet
395 1458 m 1
 495 1356 942 1194 942 1194 c 1
 971 1233 l 1
 789 1389 496 1597 496 1597 c 1
 395 1458 l 1
683 1073 m 0
EndSplineSet
EndChar

StartChar: greater
Encoding: 62 62 205
Width: 921
VWidth: 0
Flags: W
PickledData: "(dp1
S'com.typemytype.robofont.layerData'
p2
(dp3
s."
LayerCount: 2
Fore
SplineSet
891 801 m 1
 90 1155 l 1
 90 989 l 1
 735 711 l 1
 90 449 l 1
 90 279 l 1
 891 604 l 1
 891 801 l 1
EndSplineSet
EndChar

StartChar: greaterequal
Encoding: 8805 8805 206
Width: 921
VWidth: 0
Flags: W
PickledData: "(dp1
S'com.typemytype.robofont.layerData'
p2
(dp3
s."
LayerCount: 2
Fore
SplineSet
891 801 m 1
 90 1155 l 1
 90 989 l 1
 735 711 l 1
 90 449 l 1
 90 279 l 1
 891 604 l 1
 891 801 l 1
EndSplineSet
EndChar

StartChar: guillemotleft
Encoding: 171 171 207
Width: 956
VWidth: 0
Flags: W
PickledData: "(dp1
S'com.typemytype.robofont.layerData'
p2
(dp3
s."
LayerCount: 2
Fore
SplineSet
520 258 m 1
 907 596 l 1
 907 731 l 1
 907 731 606 987 520 1061 c 1
 520 846 l 1
 760 672 l 1
 520 485 l 1
 520 258 l 1
102 258 m 1
 489 596 l 1
 489 731 l 1
 489 731 188 987 102 1061 c 1
 102 846 l 1
 342 672 l 1
 102 485 l 1
 102 258 l 1
EndSplineSet
EndChar

StartChar: guillemotright
Encoding: 187 187 208
Width: 956
VWidth: 0
Flags: W
PickledData: "(dp1
S'com.typemytype.robofont.layerData'
p2
(dp3
s."
LayerCount: 2
Fore
SplineSet
520 258 m 1
 907 596 l 1
 907 731 l 1
 907 731 606 987 520 1061 c 1
 520 846 l 1
 760 672 l 1
 520 485 l 1
 520 258 l 1
102 258 m 1
 489 596 l 1
 489 731 l 1
 489 731 188 987 102 1061 c 1
 102 846 l 1
 342 672 l 1
 102 485 l 1
 102 258 l 1
EndSplineSet
EndChar

StartChar: guilsinglleft
Encoding: 8249 8249 209
Width: 544
VWidth: 0
Flags: W
PickledData: "(dp1
S'com.typemytype.robofont.layerData'
p2
(dp3
s."
LayerCount: 2
Fore
SplineSet
489 258 m 1
 102 596 l 1
 102 731 l 1
 102 731 403 987 489 1061 c 1
 489 846 l 1
 249 672 l 1
 489 485 l 1
 489 258 l 1
EndSplineSet
EndChar

StartChar: guilsinglright
Encoding: 8250 8250 210
Width: 538
VWidth: 0
Flags: W
PickledData: "(dp1
S'com.typemytype.robofont.layerData'
p2
(dp3
s."
LayerCount: 2
Fore
SplineSet
102 258 m 1
 489 596 l 1
 489 731 l 1
 489 731 188 987 102 1061 c 1
 102 846 l 1
 342 672 l 1
 102 485 l 1
 102 258 l 1
EndSplineSet
EndChar

StartChar: h
Encoding: 104 104 211
Width: 1355
VWidth: 0
Flags: W
PickledData: "(dp1
S'com.typemytype.robofont.layerData'
p2
(dp3
s."
LayerCount: 2
Fore
SplineSet
1126 723 m 2
 1126 1067 910 1102 795 1102 c 0
 676 1102 524 1047 444 883 c 1
 444 1505 l 1
 33 1505 l 1
 33 1382 l 1
 229 1382 l 1
 229 117 l 1
 45 117 l 1
 45 0 l 1
 639 0 l 1
 639 117 l 1
 444 117 l 1
 444 598 l 2
 444 802 617 960 752 960 c 0
 840 960 911 894 911 731 c 2
 911 117 l 1
 717 117 l 1
 717 0 l 1
 1341 0 l 1
 1341 117 l 1
 1126 117 l 1
 1126 723 l 2
678 1073 m 0
678 537 m 0
EndSplineSet
EndChar

StartChar: hungarumlaut
Encoding: 733 733 214
Width: 1269
VWidth: 0
Flags: W
PickledData: "(dp1
S'com.typemytype.robofont.layerData'
p2
(dp3
s."
LayerCount: 2
Fore
SplineSet
930 1499 m 1
 830 1397 424 1194 424 1194 c 1
 395 1233 l 1
 577 1389 829 1638 829 1638 c 1
 930 1499 l 1
1319 1499 m 1
 1219 1397 813 1194 813 1194 c 1
 784 1233 l 1
 966 1389 1219 1638 1219 1638 c 1
 1319 1499 l 1
857 1073 m 0
EndSplineSet
EndChar

StartChar: hyphen
Encoding: 45 45 215
Width: 831
VWidth: 0
Flags: W
PickledData: "(dp1
S'com.typemytype.robofont.layerData'
p2
(dp3
s."
LayerCount: 2
Fore
SplineSet
707 547 m 1
 707 684 l 1
 125 684 l 1
 125 547 l 1
 707 547 l 1
EndSplineSet
EndChar

StartChar: i
Encoding: 105 105 216
Width: 665
VWidth: 0
Flags: W
PickledData: "(dp1
S'com.typemytype.robofont.layerData'
p2
(dp3
s."
LayerCount: 2
Fore
SplineSet
188 1409 m 0
 188 1491 254 1559 336 1559 c 0
 416 1559 485 1491 485 1409 c 0
 485 1329 416 1262 336 1262 c 0
 254 1262 188 1329 188 1409 c 0
463 1073 m 1
 463 117 l 1
 659 117 l 1
 659 0 l 1
 55 0 l 1
 55 117 l 1
 248 117 l 1
 248 961 l 1
 53 961 l 1
 53 1073 l 1
 463 1073 l 1
EndSplineSet
EndChar

StartChar: infinity
Encoding: 8734 8734 224
Width: 1571
VWidth: 0
Flags: W
PickledData: "(dp1
S'com.typemytype.robofont.layerData'
p2
(dp3
s."
LayerCount: 2
Fore
SplineSet
1370 584 m 2
 1370 462 1309 361 1173 361 c 0
 1030 361 948 450 876 558 c 1
 936 649 1027 816 1182 816 c 0
 1321 816 1368 687 1370 589 c 1
 1370 584 l 2
386 366 m 0
 263 366 203 465 201 572 c 1
 201 577 l 2
 201 690 246 805 395 805 c 0
 510 805 604 721 678 626 c 1
 584 485 491 366 386 366 c 0
803 446 m 1
 897 318 1005 206 1176 206 c 0
 1406 206 1477 465 1477 601 c 0
 1477 775 1406 983 1161 983 c 0
 987.945690266 983 862.634908438 874.990358914 761 742 c 1
 682 850 570 949 399 949 c 0
 161 949 94 744 94 566 c 0
 94 427 169 200 423 200 c 0
 602 200 714 315 803 446 c 1
EndSplineSet
EndChar

StartChar: integral
Encoding: 8747 8747 225
Width: 786
VWidth: 0
Flags: W
PickledData: "(dp1
S'com.typemytype.robofont.layerData'
p2
(dp3
s."
LayerCount: 2
Fore
SplineSet
711 117 m 1
 461 117 l 1
 461 956 l 1
 774 956 l 1
 782 1073 l 1
 455 1073 l 1
 455 1243 l 2
 455 1427 536 1499 653 1499 c 0
 700 1499 760 1483 791 1454 c 1
 719 1436 680 1374 680 1331 c 0
 680 1251 745 1196 815 1196 c 0
 897 1196 965 1259 965 1368 c 0
 965 1470 854 1583 623 1583 c 0
 342 1583 246 1413 246 1073 c 1
 51 1073 l 1
 51 956 l 1
 246 956 l 1
 246 117 l 1
 51 117 l 1
 51 0 l 1
 711 0 l 1
 711 117 l 1
EndSplineSet
EndChar

StartChar: j
Encoding: 106 106 228
Width: 665
VWidth: 0
Flags: W
PickledData: "(dp1
S'com.typemytype.robofont.layerData'
p2
(dp3
s."
LayerCount: 2
Fore
SplineSet
160 -471 m 2
 168 -471 l 1
 365 -469 512 -340 512 -90 c 2
 512 1073 l 1
 53 1073 l 1
 53 956 l 1
 297 956 l 1
 297 -121 l 2
 297 -326 203 -362 133 -362 c 0
 94 -362 61 -350 61 -350 c 1
 108 -330 119 -268 119 -223 c 0
 119 -149 61 -113 2 -113 c 0
 -68 -113 -143 -160 -143 -254 c 0
 -143 -387 -41 -471 160 -471 c 2
227 1409 m 0
 227 1491 293 1559 375 1559 c 0
 455 1559 524 1491 524 1409 c 0
 524 1329 455 1262 375 1262 c 0
 293 1262 227 1329 227 1409 c 0
EndSplineSet
EndChar

StartChar: k
Encoding: 107 107 230
Width: 1300
VWidth: 0
Flags: W
PickledData: "(dp1
S'com.typemytype.robofont.layerData'
p2
(dp3
s."
LayerCount: 2
Fore
SplineSet
733 629 m 1
 872 434 1014 112 1198 139 c 0
 1223 143 1249 144 1280 158 c 1
 1309 23 l 1
 1237 -18 1187 -20 1130 -20 c 0
 980 -20 893 70 807 199 c 1
 606 545 l 1
 440 418 l 1
 440 117 l 1
 610 117 l 1
 610 0 l 1
 23 0 l 1
 23 117 l 1
 225 117 l 1
 225 1382 l 1
 23 1382 l 1
 23 1505 l 1
 440 1505 l 1
 440 571 l 1
 858 956 l 1
 670 956 l 1
 670 1073 l 1
 1270 1073 l 1
 1270 956 l 1
 1079 956 l 1
 733 629 l 1
650 0 m 0
EndSplineSet
EndChar

StartChar: kgreenlandic
Encoding: 312 312 232
Width: 1308
VWidth: 0
Flags: W
PickledData: "(dp1
S'com.typemytype.robofont.layerData'
p2
(dp3
s."
LayerCount: 2
Fore
SplineSet
748 610 m 1
 887 415 1037 112 1221 139 c 0
 1246 143 1272 144 1303 158 c 1
 1331 23 l 1
 1259 -18 1210 -20 1153 -20 c 0
 1003 -20 915 70 829 199 c 1
 621 526 l 1
 463 393 l 1
 463 117 l 1
 633 117 l 1
 633 0 l 1
 45 0 l 1
 45 117 l 1
 248 117 l 1
 248 950 l 1
 45 950 l 1
 45 1073 l 1
 463 1073 l 1
 463 547 l 1
 897 956 l 1
 692 956 l 1
 692 1073 l 1
 1292 1073 l 1
 1292 956 l 1
 1102 956 l 1
 748 610 l 1
EndSplineSet
EndChar

StartChar: l
Encoding: 108 108 233
Width: 708
VWidth: 0
Flags: W
PickledData: "(dp1
S'com.typemytype.robofont.layerData'
p2
(dp3
s."
LayerCount: 2
Fore
SplineSet
475 1505 m 1
 475 117 l 1
 690 117 l 1
 690 0 l 1
 37 0 l 1
 37 117 l 1
 260 117 l 1
 260 1382 l 1
 37 1382 l 1
 37 1505 l 1
 475 1505 l 1
354 1073 m 0
354 0 m 0
688 1073 m 0
EndSplineSet
EndChar

StartChar: less
Encoding: 60 60 238
Width: 921
VWidth: 0
Flags: W
PickledData: "(dp1
S'com.typemytype.robofont.layerData'
p2
(dp3
s."
LayerCount: 2
Fore
SplineSet
90 801 m 1
 891 1155 l 1
 891 989 l 1
 246 711 l 1
 891 449 l 1
 891 279 l 1
 90 604 l 1
 90 801 l 1
EndSplineSet
EndChar

StartChar: lessequal
Encoding: 8804 8804 239
Width: 921
VWidth: 0
Flags: W
PickledData: "(dp1
S'com.typemytype.robofont.layerData'
p2
(dp3
s."
LayerCount: 2
Fore
SplineSet
90 801 m 1
 891 1155 l 1
 891 989 l 1
 246 711 l 1
 891 449 l 1
 891 279 l 1
 90 604 l 1
 90 801 l 1
EndSplineSet
EndChar

StartChar: logicalnot
Encoding: 172 172 240
Width: 995
VWidth: 0
Flags: W
PickledData: "(dp1
S'com.typemytype.robofont.layerData'
p2
(dp3
s."
LayerCount: 2
Fore
SplineSet
725 289 m 1
 895 289 l 1
 895 797 l 1
 61 797 l 1
 61 649 l 1
 725 649 l 1
 725 289 l 1
EndSplineSet
EndChar

StartChar: lozenge
Encoding: 9674 9674 241
Width: 921
VWidth: 0
Flags: W
PickledData: "(dp1
S'com.typemytype.robofont.layerData'
p2
(dp3
s."
LayerCount: 2
Fore
SplineSet
744 705 m 1
 485 226 l 1
 239 705 l 1
 498 1165 l 1
 744 705 l 1
910 705 m 1
 604 1286 l 1
 408 1286 l 1
 73 705 l 1
 379 125 l 1
 575 125 l 1
 910 705 l 1
EndSplineSet
EndChar

StartChar: lslash
Encoding: 322 322 242
Width: 708
VWidth: 0
Flags: W
PickledData: "(dp1
S'com.typemytype.robofont.layerData'
p2
(dp3
s."
LayerCount: 2
Fore
SplineSet
37 0 m 1
 690 0 l 1
 690 117 l 1
 475 117 l 1
 475 834 l 1
 677 925 l 1
 677 1073 l 1
 475 982 l 1
 475 1505 l 1
 37 1505 l 1
 37 1382 l 1
 260 1382 l 1
 260 886 l 1
 61 797 l 1
 61 649 l 1
 260 738 l 1
 260 117 l 1
 37 117 l 1
 37 0 l 1
EndSplineSet
EndChar

StartChar: m
Encoding: 109 109 243
Width: 1929
VWidth: 0
Flags: W
PickledData: "(dp1
S'com.typemytype.robofont.layerData'
p2
(dp3
s."
LayerCount: 2
Fore
SplineSet
631 119 m 1
 459 119 l 1
 459 586 l 2
 459 772 495 965 694 965 c 1
 807 963 885 891 885 711 c 2
 885 119 l 1
 713 119 l 1
 713 0 l 1
 1272 0 l 1
 1272 119 l 1
 1100 119 l 1
 1100 731 l 1
 1120 860 1180 965 1325 965 c 1
 1438 963 1516 891 1516 711 c 2
 1516 119 l 1
 1354 119 l 1
 1354 0 l 1
 1915 0 l 1
 1915 119 l 1
 1731 119 l 1
 1731 713 l 2
 1731 1061 1520 1102 1399 1102 c 0
 1276 1102 1149 1047 1079 889 c 1
 1024 1086 889 1102 791 1102 c 0
 666 1102 510 1042 453 872 c 1
 428 1090 l 1
 49 1073 l 1
 49 954 l 1
 244 954 l 1
 244 119 l 1
 49 119 l 1
 49 0 l 1
 631 0 l 1
 631 119 l 1
EndSplineSet
EndChar

StartChar: macron
Encoding: 175 175 244
Width: 831
VWidth: 0
Flags: W
PickledData: "(dp1
S'com.typemytype.robofont.layerData'
p2
(dp3
s."
LayerCount: 2
Fore
SplineSet
707 1341 m 1
 707 1479 l 1
 125 1479 l 1
 125 1341 l 1
 707 1341 l 1
416 1073 m 0
EndSplineSet
EndChar

StartChar: minus
Encoding: 8722 8722 245
Width: 831
VWidth: 0
Flags: W
PickledData: "(dp1
S'com.typemytype.robofont.layerData'
p2
(dp3
s."
LayerCount: 2
Fore
SplineSet
707 547 m 1
 707 711 l 1
 125 711 l 1
 125 547 l 1
 707 547 l 1
EndSplineSet
EndChar

StartChar: mu
Encoding: 956 956 246
Width: 1368
VWidth: 0
Flags: W
PickledData: "(dp1
S'com.typemytype.robofont.layerData'
p2
(dp3
s."
LayerCount: 2
Fore
SplineSet
418 -336 m 0
 418 -268 336 -14 336 131 c 1
 375 -6 510 -29 557 -29 c 0
 682 -29 811 37 907 174 c 1
 907 -29 l 1
 1311 0 l 1
 1311 92 l 1
 1116 113 l 1
 1116 1073 l 1
 719 1073 l 1
 719 954 l 1
 901 954 l 1
 901 375 l 2
 901 250 729 117 604 117 c 2
 600 117 l 2
 483 117 426 186 426 362 c 2
 426 1073 l 1
 6 1073 l 1
 6 954 l 1
 211 954 l 1
 211 360 l 1
 211 -301 l 2
 211 -381 235 -449 317 -449 c 0
 378 -449 418 -397 418 -336 c 0
EndSplineSet
EndChar

StartChar: multiply
Encoding: 215 215 247
Width: 956
VWidth: 0
Flags: W
PickledData: "(dp1
S'com.typemytype.robofont.layerData'
p2
(dp3
s."
LayerCount: 2
Fore
SplineSet
475.63 666.212 m 1
 739 930 l 1
 842 829 l 1
 577.372 564.792 l 1
 842 301 l 1
 739 197 l 1
 474.629 462.211 l 1
 211 199 l 1
 109 299 l 1
 373.371 563.79 l 1
 109 829 l 1
 209 932 l 1
 475.63 666.212 l 1
EndSplineSet
EndChar

StartChar: n
Encoding: 110 110 248
Width: 1359
VWidth: 0
Flags: W
PickledData: "(dp1
S'com.typemytype.robofont.layerData'
p2
(dp3
s."
LayerCount: 2
Fore
SplineSet
641 0 m 1
 641 119 l 1
 459 119 l 1
 459 586 l 2
 459 772 536 965 735 965 c 1
 848 963 926 891 926 711 c 2
 926 119 l 1
 743 119 l 1
 743 0 l 1
 1346 0 l 1
 1346 119 l 1
 1141 119 l 1
 1141 713 l 2
 1141 1061 930 1102 809 1102 c 0
 684 1102 523 1032 453 872 c 1
 428 1090 l 1
 49 1073 l 1
 49 954 l 1
 244 954 l 1
 244 119 l 1
 49 119 l 1
 49 0 l 1
 641 0 l 1
680 1073 m 0
680 0 m 0
EndSplineSet
EndChar

StartChar: nine
Encoding: 57 57 252
Width: 1239
VWidth: 0
Flags: W
PickledData: "(dp1
S'com.typemytype.robofont.layerData'
p2
(dp3
s."
LayerCount: 2
Fore
SplineSet
475 -283 m 0
 766 -283 1106 -86 1106 471 c 2
 1106 502 l 1
 1098 903 891 1092 633 1104 c 1
 602 1104 l 2
 332 1104 121 918 121 674 c 0
 121 357 369 248 598 248 c 0
 707 248 841 283 915 365 c 1
 880 117 719 -160 463 -178 c 1
 465 -162 473 -135 473 -94 c 0
 473 -31 408 27 342 27 c 0
 260 27 207 -25 207 -115 c 0
 207 -215 325 -283 475 -283 c 0
625 379 m 0
 432 379 324 481 324 682 c 0
 324 856 450 979 602 979 c 0
 850 979 909 727 909 563 c 0
 909 442 736 379 625 379 c 0
EndSplineSet
EndChar

StartChar: notequal
Encoding: 8800 8800 253
Width: 919
VWidth: 0
Flags: W
PickledData: "(dp1
S'com.typemytype.robofont.layerData'
p2
(dp3
s."
LayerCount: 2
Fore
SplineSet
111 860 m 1
 809 860 l 1
 809 723 l 1
 111 723 l 1
 111 860 l 1
111 496 m 1
 809 496 l 1
 809 358 l 1
 111 358 l 1
 111 496 l 1
EndSplineSet
EndChar

StartChar: numbersign
Encoding: 35 35 255
Width: 1191
VWidth: 0
Flags: W
PickledData: "(dp1
S'com.typemytype.robofont.layerData'
p2
(dp3
s."
LayerCount: 2
Fore
SplineSet
590 1597 m 1
 709 1561 l 1
 547.179 1073 l 1
 873.141 1073 l 1
 1047 1597 l 1
 1165 1561 l 1
 1003.46 1073 l 1
 1237 1073 l 1
 1237 1006 l 1
 981.282 1006 l 1
 861.783 645 l 1
 1116 645 l 1
 1116 578 l 1
 839.605 578 l 1
 592 -170 l 1
 473 -133 l 1
 708.904 578 l 1
 383.037 578 l 1
 135 -170 l 1
 16 -133 l 1
 251.904 578 l 1
 29 578 l 1
 29 645 l 1
 274.134 645 l 1
 393.911 1006 l 1
 150 1006 l 1
 150 1073 l 1
 416.141 1073 l 1
 590 1597 l 1
524.962 1006 m 1
 405.254 645 l 1
 731.134 645 l 1
 850.911 1006 l 1
 524.962 1006 l 1
EndSplineSet
EndChar

StartChar: o
Encoding: 111 111 256
Width: 1189
VWidth: 0
Flags: W
PickledData: "(dp1
S'com.typemytype.robofont.layerData'
p2
(dp3
s."
LayerCount: 2
Fore
SplineSet
596 983 m 0
 391 983 303 784 303 524 c 0
 303 270 414 100 598 100 c 0
 780 100 887 274 887 524 c 0
 887 784 801 983 596 983 c 0
598 -27 m 0
 270 -27 74 218 74 537 c 0
 74 856 268 1102 596 1102 c 0
 924 1102 1116 856 1116 537 c 0
 1116 222 924 -27 598 -27 c 0
595 1073 m 0
EndSplineSet
EndChar

StartChar: oe
Encoding: 339 339 261
Width: 1964
VWidth: 0
Flags: W
PickledData: "(dp1
S'com.typemytype.robofont.layerData'
p2
(dp3
s."
LayerCount: 2
Fore
SplineSet
1124 659 m 1
 1668 659 l 1
 1662 856 1547 985 1404 985 c 0
 1259 985 1140 856 1124 659 c 1
598 -27 m 0
 270 -27 74 218 74 537 c 0
 74 856 268 1102 596 1102 c 0
 776.631 1102 916.016 1027.39 1004.8 907.077 c 1
 1090.98 1025.45 1223.53 1104 1398 1104 c 0
 1668 1104 1882 911 1888 551 c 1
 1117 551 l 1
 1117 543 l 2
 1117 321 1211 123 1431 123 c 0
 1560 123 1705 205 1750 371 c 1
 1867 334 l 1
 1816 117 1652 -29 1410 -29 c 0
 1228.25 -29 1091.03 49.9374 1003 166.298 c 1
 914.349 47.3948 776.192 -27 598 -27 c 0
596 983 m 0
 391 983 303 784 303 524 c 0
 303 270 414 100 598 100 c 0
 780 100 887 274 887 524 c 0
 887 784 801 983 596 983 c 0
EndSplineSet
EndChar

StartChar: ogonek
Encoding: 731 731 262
Width: 337
VWidth: 0
Flags: W
PickledData: "(dp1
S'com.typemytype.robofont.layerData'
p2
(dp3
s."
LayerCount: 2
Fore
SplineSet
16 -174 m 0
 16 -278 127 -385 305 -385 c 1
 332 -246 l 1
 203 -228 176 -176 176 -123 c 0
 176 -72 223 -20 334 0 c 1
 334 31 l 1
 193 31 16 -31 16 -174 c 0
334 10 m 0
EndSplineSet
EndChar

StartChar: one
Encoding: 49 49 266
Width: 821
VWidth: 0
Flags: W
PickledData: "(dp1
S'com.typemytype.robofont.layerData'
p2
(dp3
s."
LayerCount: 2
Fore
SplineSet
117 0 m 1
 805 0 l 1
 805 119 l 1
 575 119 l 1
 575 1073 l 1
 453 1073 l 1
 86 928 l 1
 147 799 l 1
 360 897 l 1
 360 119 l 1
 117 119 l 1
 117 0 l 1
EndSplineSet
EndChar

StartChar: onehalf
Encoding: 189 189 267
Width: 1959
VWidth: 0
Flags: W
PickledData: "(dp1
S'com.typemytype.robofont.layerData'
p2
(dp3
s."
LayerCount: 2
Fore
SplineSet
1409 1479 m 1
 1509 1419 l 1
 444 -61 l 1
 344 -2 l 1
 1409 1479 l 1
260 750 m 1
 664 750 l 1
 664 836 l 1
 539 836 l 1
 539 1561 l 1
 260 1483 l 1
 260 1376 l 1
 393 1411 l 1
 393 836 l 1
 260 836 l 1
 260 750 l 1
1792 -102 m 1
 1765 123 l 1
 1370 123 l 1
 1571 270 l 1
 1725 370 1769 477 1769 545 c 0
 1769 727 1652 831 1470 831 c 0
 1275 831 1118 719 1118 596 c 2
 1118 592 l 1
 1120 535 1155 471 1241 471 c 0
 1309 471 1356 514 1356 582 c 0
 1356 635 1315 664 1284 674 c 1
 1325 721 1381 745 1444 745 c 0
 1536 745 1616 657 1616 557 c 0
 1616 483 1581 407 1501 352 c 0
 1481 338 1147 90 1147 90 c 1
 1149 90 1161 0 1161 0 c 1
 1671 0 l 1
 1741 -111 l 1
 1792 -102 l 1
EndSplineSet
EndChar

StartChar: onequarter
Encoding: 188 188 268
Width: 1878
VWidth: 0
Flags: W
PickledData: "(dp1
S'com.typemytype.robofont.layerData'
p2
(dp3
s."
LayerCount: 2
Fore
SplineSet
1409 1479 m 1
 1509 1419 l 1
 444 -61 l 1
 344 -2 l 1
 1409 1479 l 1
260 750 m 1
 664 750 l 1
 664 836 l 1
 539 836 l 1
 539 1561 l 1
 260 1483 l 1
 260 1376 l 1
 393 1411 l 1
 393 836 l 1
 260 836 l 1
 260 750 l 1
1649 86 m 1
 1518 86 l 1
 1518 268 l 1
 1649 268 l 1
 1649 352 l 1
 1518 352 l 1
 1518 805 l 1
 1360 805 l 1
 1044 360 l 1
 1044 268 l 1
 1393 268 l 1
 1393 86 l 1
 1247 86 l 1
 1247 0 l 1
 1649 0 l 1
 1649 86 l 1
1393 352 m 1
 1157 352 l 1
 1393 696 l 1
 1393 352 l 1
EndSplineSet
EndChar

StartChar: ordfeminine
Encoding: 170 170 269
Width: 1275
VWidth: 0
Flags: W
PickledData: "(dp1
S'com.typemytype.robofont.layerData'
p2
(dp3
s."
LayerCount: 2
Fore
SplineSet
328 756 m 0
 328 903 514 889 686 1057 c 1
 686 877 l 2
 686 781 545 659 428 659 c 0
 358 659 328 701 328 756 c 0
1176 827 m 2
 1176 936 l 1
 1081 936 l 1
 1081 809 l 2
 1081 719 1055 657 973 657 c 0
 893 657 870 744 870 801 c 2
 870 1194 l 2
 870 1423 719 1499 539 1499 c 0
 291 1499 174 1345 174 1257 c 0
 174 1161 242 1118 301 1118 c 0
 364 1118 422 1165 422 1239 c 0
 422 1290 379 1339 301 1339 c 1
 342 1384 422 1411 502 1411 c 0
 615 1411 686 1352 686 1219 c 0
 686 1000 143 1033 143 748 c 0
 143 613 246 535 383 535 c 1
 522 537 649 627 700 750 c 1
 712 605 825 535 936 535 c 2
 940 535 l 1
 1069 537 1176 591 1176 827 c 2
EndSplineSet
EndChar

StartChar: ordmasculine
Encoding: 186 186 270
Width: 1189
VWidth: 0
Flags: W
PickledData: "(dp1
S'com.typemytype.robofont.layerData'
p2
(dp3
s."
LayerCount: 2
Fore
SplineSet
598 1397 m 0
 424 1397 348 1227 348 1006 c 0
 348 789 442 643 600 643 c 0
 756 643 846 793 846 1006 c 0
 846 1227 774 1397 598 1397 c 0
600 535 m 0
 319 535 152 744 152 1016 c 0
 152 1288 317 1499 598 1499 c 0
 879 1499 1042 1288 1042 1016 c 0
 1042 746 879 535 600 535 c 0
EndSplineSet
EndChar

StartChar: oslash
Encoding: 248 248 271
Width: 1189
VWidth: 0
Flags: W
PickledData: "(dp1
S'com.typemytype.robofont.layerData'
p2
(dp3
s."
LayerCount: 2
Fore
SplineSet
1112 1190 m 1
 1178 1137 l 1
 113 -111 l 1
 47 -57 l 1
 1112 1190 l 1
595 1073 m 0
EndSplineSet
Refer: 256 111 N 1 0 0 1 0 0 2
EndChar

StartChar: p
Encoding: 112 112 273
Width: 1220
VWidth: 0
Flags: W
PickledData: "(dp1
S'com.typemytype.robofont.layerData'
p2
(dp3
s."
LayerCount: 2
Fore
SplineSet
918 551 m 0
 918 764 825 975 653 975 c 0
 493 975 383 790 383 532 c 0
 383 327 458 86 653 86 c 0
 846 86 918 332 918 551 c 0
1147 539 m 0
 1147 211 975 -27 692 -27 c 1
 573 -19 465 33 397 133 c 1
 397 -279 l 1
 618 -279 l 1
 618 -401 l 1
 -53 -401 l 1
 -53 -281 l 1
 182 -281 l 1
 182 961 l 1
 -12 961 l 1
 -12 1073 l 1
 391 1102 l 1
 391 901 l 1
 461 1028 573 1098 702 1102 c 0
 966 1112 1147 858 1147 539 c 0
EndSplineSet
EndChar

StartChar: paragraph
Encoding: 182 182 274
Width: 1210
VWidth: 0
Flags: W
PickledData: "(dp1
S'com.typemytype.robofont.layerData'
p2
(dp3
s."
LayerCount: 2
Fore
SplineSet
797 735 m 1
 942 735 l 1
 942 -57 l 1
 1106 -57 l 1
 1106 1479 l 1
 555 1479 l 2
 285 1479 147 1292 147 1106 c 0
 147 920 284 735 565 735 c 2
 627 735 l 1
 627 -57 l 1
 797 -57 l 1
 797 735 l 1
EndSplineSet
EndChar

StartChar: parenleft
Encoding: 40 40 275
Width: 872
VWidth: 0
Flags: W
PickledData: "(dp1
S'com.typemytype.robofont.layerData'
p2
(dp3
s."
LayerCount: 2
Fore
SplineSet
424 668 m 0
 424 1028 549 1432 799 1479 c 1
 799 1565 l 1
 400 1526 199 1076 199 668 c 0
 199 258 400 -190 799 -229 c 1
 799 -143 l 1
 549 -96 424 306 424 668 c 0
EndSplineSet
EndChar

StartChar: parenright
Encoding: 41 41 276
Width: 872
VWidth: 0
Flags: W
PickledData: "(dp1
S'com.typemytype.robofont.layerData'
p2
(dp3
s."
LayerCount: 2
Fore
SplineSet
449 668 m 0
 449 308 324 -96 74 -143 c 1
 74 -229 l 1
 473 -190 674 260 674 668 c 0
 674 1078 473 1526 74 1565 c 1
 74 1479 l 1
 324 1432 449 1030 449 668 c 0
EndSplineSet
EndChar

StartChar: percent
Encoding: 37 37 277
Width: 1828
VWidth: 0
Flags: W
PickledData: "(dp1
S'com.typemytype.robofont.layerData'
p2
(dp3
s."
LayerCount: 2
Fore
SplineSet
1403 1479 m 1
 1503 1419 l 1
 438 -61 l 1
 338 -2 l 1
 1403 1479 l 1
250 1157 m 0
 250 1018 332 872 479 872 c 0
 624 872 705 1016 705 1155 c 0
 705 1290 631 1421 477 1421 c 0
 323 1421 250 1292 250 1157 c 0
94 1145 m 0
 94 1327 223 1511 477 1511 c 0
 731 1511 860 1327 860 1143 c 0
 860 961 735 778 479 778 c 0
 221 778 94 961 94 1145 c 0
1124 342 m 0
 1124 203 1207 57 1354 57 c 0
 1499 57 1579 201 1579 340 c 0
 1579 475 1506 606 1352 606 c 0
 1198 606 1124 477 1124 342 c 0
969 330 m 0
 969 512 1098 696 1352 696 c 0
 1606 696 1735 512 1735 328 c 0
 1735 146 1610 -37 1354 -37 c 0
 1096 -37 969 146 969 330 c 0
EndSplineSet
EndChar

StartChar: period
Encoding: 46 46 278
Width: 458
VWidth: 0
Flags: W
PickledData: "(dp1
S'com.typemytype.robofont.layerData'
p2
(dp3
s."
LayerCount: 2
Fore
SplineSet
125 127 m 0
 125 209 190 276 272 276 c 0
 352 276 422 209 422 127 c 0
 422 47 352 -20 272 -20 c 0
 190 -20 125 47 125 127 c 0
EndSplineSet
EndChar

StartChar: periodcentered
Encoding: 183 183 279
Width: 669
VWidth: 0
Flags: W
PickledData: "(dp1
S'com.typemytype.robofont.layerData'
p2
(dp3
s."
LayerCount: 2
Fore
SplineSet
186 924 m 0
 186 1006 252 1073 334 1073 c 0
 414 1073 483 1006 483 924 c 0
 483 844 414 776 334 776 c 0
 252 776 186 844 186 924 c 0
EndSplineSet
EndChar

StartChar: perthousand
Encoding: 8240 8240 280
Width: 1828
VWidth: 0
Flags: W
PickledData: "(dp1
S'com.typemytype.robofont.layerData'
p2
(dp3
s."
LayerCount: 2
Fore
SplineSet
1403 1479 m 1
 1503 1419 l 1
 438 -61 l 1
 338 -2 l 1
 1403 1479 l 1
250 1157 m 0
 250 1018 332 872 479 872 c 0
 624 872 705 1016 705 1155 c 0
 705 1290 631 1421 477 1421 c 0
 323 1421 250 1292 250 1157 c 0
94 1145 m 0
 94 1327 223 1511 477 1511 c 0
 731 1511 860 1327 860 1143 c 0
 860 961 735 778 479 778 c 0
 221 778 94 961 94 1145 c 0
1124 342 m 0
 1124 203 1207 57 1354 57 c 0
 1499 57 1579 201 1579 340 c 0
 1579 475 1506 606 1352 606 c 0
 1198 606 1124 477 1124 342 c 0
969 330 m 0
 969 512 1098 696 1352 696 c 0
 1606 696 1735 512 1735 328 c 0
 1735 146 1610 -37 1354 -37 c 0
 1096 -37 969 146 969 330 c 0
EndSplineSet
EndChar

StartChar: plus
Encoding: 43 43 281
Width: 956
VWidth: 0
Flags: W
PickledData: "(dp1
S'com.typemytype.robofont.layerData'
p2
(dp3
s."
LayerCount: 2
Fore
SplineSet
563 532 m 1
 563 156 l 1
 393 156 l 1
 393 532 l 1
 61 532 l 1
 61 680 l 1
 393 680 l 1
 393 1047 l 1
 563 1047 l 1
 563 680 l 1
 895 680 l 1
 895 532 l 1
 563 532 l 1
EndSplineSet
EndChar

StartChar: plusminus
Encoding: 177 177 282
Width: 956
VWidth: 0
Flags: W
PickledData: "(dp1
S'com.typemytype.robofont.layerData'
p2
(dp3
s."
LayerCount: 2
Fore
SplineSet
102 147 m 1
 854 147 l 1
 854 0 l 1
 102 0 l 1
 102 147 l 1
563 621 m 1
 563 326 l 1
 393 326 l 1
 393 621 l 1
 102 621 l 1
 102 768 l 1
 393 768 l 1
 393 1053 l 1
 563 1053 l 1
 563 768 l 1
 854 768 l 1
 854 621 l 1
 563 621 l 1
EndSplineSet
EndChar

StartChar: q
Encoding: 113 113 283
Width: 1196
VWidth: 0
Flags: W
PickledData: "(dp1
S'com.typemytype.robofont.layerData'
p2
(dp3
s."
LayerCount: 2
Fore
SplineSet
565 86 m 0
 372 86 303 332 303 551 c 0
 303 764 393 981 565 981 c 0
 731 981 831 762 831 492 c 0
 831 326 751 86 565 86 c 0
524 1102 m 0
 258 1102 74 858 74 539 c 0
 74 211 252 -27 535 -27 c 1
 654 -19 763 33 831 133 c 1
 831 -276 l 1
 614 -275 l 1
 614 -399 l 1
 1253 -399 l 1
 1253 -276 l 1
 1047 -276 l 1
 1047 1073 l 1
 954 1073 l 1
 877 877 l 1
 807 1041 657 1102 524 1102 c 0
EndSplineSet
EndChar

StartChar: question
Encoding: 63 63 284
Width: 1009
VWidth: 0
Flags: W
PickledData: "(dp1
S'com.typemytype.robofont.layerData'
p2
(dp3
s."
LayerCount: 2
Fore
SplineSet
492 406 m 1
 572 652 926 758 926 1096 c 0
 926 1422 666 1505 528 1509 c 1
 292 1509 82 1384 82 1155 c 0
 82 1083 145 997 256 997 c 0
 342 997 401 1059 401 1145 c 0
 401 1247 307 1274 252 1274 c 1
 285 1348 391 1397 473 1397 c 0
 579 1397 711 1351 711 1126 c 0
 711 862 426 768 426 406 c 1
 492 406 l 1
455 -20 m 0
 535 -20 604 47 604 127 c 0
 604 209 535 276 455 276 c 0
 373 276 307 209 307 127 c 0
 307 47 373 -20 455 -20 c 0
EndSplineSet
EndChar

StartChar: quotedbl
Encoding: 34 34 286
Width: 667
VWidth: 0
Flags: W
PickledData: "(dp1
S'com.typemytype.robofont.layerData'
p2
(dp3
s."
LayerCount: 2
Fore
SplineSet
82 1456 m 0
 82 1501 111 1536 168 1536 c 0
 229 1536 252 1501 252 1456 c 0
 252 1452 199 1028 199 1028 c 2
 197 1012 182 1004 168 1004 c 0
 152 1004 137 1012 135 1028 c 2
 135 1028 82 1452 82 1456 c 0
344 1456 m 0
 344 1501 373 1536 430 1536 c 0
 491 1536 514 1501 514 1456 c 0
 514 1452 461 1028 461 1028 c 2
 459 1012 444 1004 430 1004 c 0
 414 1004 399 1012 397 1028 c 2
 397 1028 344 1452 344 1456 c 0
EndSplineSet
EndChar

StartChar: quotedblbase
Encoding: 8222 8222 287
Width: 667
VWidth: 0
Flags: W
PickledData: "(dp1
S'com.typemytype.robofont.layerData'
p2
(dp3
s."
LayerCount: 2
Fore
SplineSet
102 35 m 0
 102 80 131 115 188 115 c 0
 249 115 272 80 272 35 c 0
 272 31 219 -373 219 -373 c 2
 217 -389 202 -397 188 -397 c 0
 172 -397 158 -389 156 -373 c 2
 156 -373 102 31 102 35 c 0
342 35 m 0
 342 80 371 115 428 115 c 0
 489 115 512 80 512 35 c 0
 512 31 459 -373 459 -373 c 2
 457 -389 442 -397 428 -397 c 0
 412 -397 397 -389 395 -373 c 2
 395 -373 342 31 342 35 c 0
EndSplineSet
EndChar

StartChar: quotedblleft
Encoding: 8220 8220 288
Width: 839
VWidth: 0
Flags: W
PickledData: "(dp1
S'com.typemytype.robofont.layerData'
p2
(dp3
s."
LayerCount: 2
Fore
SplineSet
326 1462 m 1
 275 1431 207 1366 207 1313 c 0
 207 1303 209 1292 215 1284 c 1
 235 1298 264 1309 293 1309 c 0
 356 1309 416 1245 416 1182 c 0
 416 1108 344 1044 276 1044 c 0
 200 1044 102 1106 102 1243 c 0
 102 1333 147 1442 270 1528 c 0
 274 1530 279 1534 281 1536 c 1
 326 1462 l 1
565 1313 m 0
 565 1303 567 1292 573 1284 c 1
 593 1298 622 1309 651 1309 c 0
 714 1309 774 1245 774 1182 c 0
 774 1108 703 1044 635 1044 c 0
 559 1044 461 1106 461 1243 c 0
 461 1333 506 1442 629 1528 c 0
 633 1530 637 1534 639 1536 c 1
 684 1462 l 1
 633 1431 565 1366 565 1313 c 0
EndSplineSet
EndChar

StartChar: quotedblright
Encoding: 8221 8221 289
Width: 765
VWidth: 0
Flags: W
PickledData: "(dp1
S'com.typemytype.robofont.layerData'
p2
(dp3
s."
LayerCount: 2
Fore
SplineSet
141 1118 m 1
 192 1149 260 1215 260 1268 c 0
 260 1278 258 1288 252 1296 c 1
 232 1282 203 1272 174 1272 c 0
 111 1272 51 1336 51 1399 c 0
 51 1473 122 1536 190 1536 c 0
 266 1536 365 1474 365 1337 c 0
 365 1247 322 1139 199 1053 c 0
 195 1051 188 1046 186 1044 c 1
 141 1118 l 1
621 1268 m 0
 621 1278 618 1288 612 1296 c 1
 592 1282 564 1272 535 1272 c 0
 472 1272 412 1336 412 1399 c 0
 412 1473 483 1536 551 1536 c 0
 627 1536 725 1474 725 1337 c 0
 725 1247 682 1139 559 1053 c 0
 555 1051 549 1046 547 1044 c 1
 502 1118 l 1
 553 1149 621 1215 621 1268 c 0
EndSplineSet
EndChar

StartChar: quoteleft
Encoding: 8216 8216 290
Width: 813
VWidth: 0
Flags: W
PickledData: "(dp1
S'com.typemytype.robofont.layerData'
p2
(dp3
s."
LayerCount: 2
Fore
SplineSet
477 1462 m 1
 426 1431 358 1366 358 1313 c 0
 358 1303 361 1292 367 1284 c 1
 387 1298 415 1309 444 1309 c 0
 507 1309 567 1245 567 1182 c 0
 567 1108 496 1044 428 1044 c 0
 352 1044 254 1106 254 1243 c 0
 254 1333 299 1442 422 1528 c 0
 426 1530 430 1534 432 1536 c 1
 477 1462 l 1
EndSplineSet
EndChar

StartChar: quoteright
Encoding: 8217 8217 291
Width: 518
VWidth: 0
Flags: W
PickledData: "(dp1
S'com.typemytype.robofont.layerData'
p2
(dp3
s."
LayerCount: 2
Fore
SplineSet
197 1118 m 1
 248 1149 315 1215 315 1268 c 0
 315 1278 313 1288 307 1296 c 1
 287 1282 258 1272 229 1272 c 0
 166 1272 106 1336 106 1399 c 0
 106 1473 178 1536 246 1536 c 0
 322 1536 420 1474 420 1337 c 0
 420 1247 377 1139 254 1053 c 0
 250 1051 244 1046 242 1044 c 1
 197 1118 l 1
EndSplineSet
EndChar

StartChar: quotesinglbase
Encoding: 8218 8218 292
Width: 667
VWidth: 0
Flags: W
PickledData: "(dp1
S'com.typemytype.robofont.layerData'
p2
(dp3
s."
LayerCount: 2
Fore
SplineSet
102 35 m 0
 102 80 131 115 188 115 c 0
 249 115 272 80 272 35 c 0
 272 31 219 -373 219 -373 c 2
 217 -389 202 -397 188 -397 c 0
 172 -397 158 -389 156 -373 c 2
 156 -373 102 31 102 35 c 0
342 35 m 0
 342 80 371 115 428 115 c 0
 489 115 512 80 512 35 c 0
 512 31 459 -373 459 -373 c 2
 457 -389 442 -397 428 -397 c 0
 412 -397 397 -389 395 -373 c 2
 395 -373 342 31 342 35 c 0
EndSplineSet
EndChar

StartChar: quotesingle
Encoding: 39 39 293
Width: 329
VWidth: 0
Flags: W
PickledData: "(dp1
S'com.typemytype.robofont.layerData'
p2
(dp3
s."
LayerCount: 2
Fore
SplineSet
82 1456 m 0
 82 1501 111 1536 168 1536 c 0
 229 1536 252 1501 252 1456 c 0
 252 1452 199 1028 199 1028 c 2
 197 1012 182 1004 168 1004 c 0
 152 1004 137 1012 135 1028 c 2
 135 1028 82 1452 82 1456 c 0
EndSplineSet
EndChar

StartChar: quotesinglebase
Encoding: 65544 -1 294
Width: 329
VWidth: 0
Flags: W
PickledData: "(dp1
S'com.typemytype.robofont.layerData'
p2
(dp3
s."
LayerCount: 2
Fore
SplineSet
82 35 m 0
 82 80 111 115 168 115 c 0
 229 115 252 80 252 35 c 0
 252 31 199 -373 199 -373 c 2
 197 -389 182 -397 168 -397 c 0
 152 -397 137 -389 135 -373 c 2
 135 -373 82 31 82 35 c 0
EndSplineSet
EndChar

StartChar: r
Encoding: 114 114 295
Width: 954
VWidth: 0
Flags: W
PickledData: "(dp1
S'com.typemytype.robofont.layerData'
p2
(dp3
s."
LayerCount: 2
Fore
SplineSet
684 0 m 1
 684 117 l 1
 459 117 l 1
 459 575 l 2
 459 761 519 987 687 987 c 1
 687 987 646 946 646 899 c 0
 646 813 716 766 788 766 c 0
 864 766 941 819 941 930 c 0
 941 1045 843 1102 743 1102 c 0
 573 1102 484 956 455 856 c 1
 428 1090 l 1
 49 1073 l 1
 49 954 l 1
 244 954 l 1
 244 117 l 1
 49 117 l 1
 49 0 l 1
 684 0 l 1
473 1073 m 0
473 0 m 0
EndSplineSet
EndChar

StartChar: registered
Encoding: 174 174 299
Width: 1703
VWidth: 0
Flags: W
PickledData: "(dp1
S'com.typemytype.robofont.layerData'
p2
(dp3
s."
LayerCount: 2
Fore
SplineSet
717 813 m 1
 717 1106 l 1
 764 1106 l 2
 940 1106 1008 1075 1012 958 c 1
 1012 852 932 813 768 813 c 2
 717 813 l 1
1122 328 m 0
 1200 328 1313 358 1313 524 c 2
 1313 608 l 1
 1210 608 l 1
 1210 537 l 2
 1210 453 1188 424 1147 424 c 0
 1053 424 1155 717 944 762 c 1
 1063 785 1165 831 1167 958 c 1
 1167 1175 928 1186 764 1186 c 2
 438 1186 l 1
 438 1106 l 1
 563 1106 l 1
 563 422 l 1
 438 422 l 1
 438 344 l 1
 819 344 l 1
 819 422 l 1
 717 422 l 1
 717 745 l 1
 819 745 l 2
 835 745 891 682 911 569 c 1
 938 405 981 328 1122 328 c 0
854 70 m 0
 483 70 178 374 178 745 c 0
 178 1118 483 1421 854 1421 c 0
 1227 1421 1530 1118 1530 745 c 0
 1530 374 1227 70 854 70 c 0
852 -27 m 0
 1274 -27 1620 321 1620 743 c 0
 1620 1163 1274 1509 852 1509 c 0
 432 1509 84 1163 84 743 c 0
 84 321 432 -27 852 -27 c 0
EndSplineSet
EndChar

StartChar: ring
Encoding: 730 730 300
Width: 1189
VWidth: 0
Flags: W
PickledData: "(dp1
S'com.typemytype.robofont.layerData'
p2
(dp3
s."
LayerCount: 2
Fore
SplineSet
551 1518 m 0
 496 1518 438 1475 438 1391 c 0
 438 1307 494 1266 549 1266 c 0
 604 1266 662 1309 662 1391 c 0
 662 1475 606 1518 551 1518 c 0
350 1391 m 0
 350 1493 424 1573 551 1573 c 0
 676 1573 750 1493 750 1391 c 0
 750 1289 676 1208 551 1208 c 0
 426 1208 350 1287 350 1391 c 0
550 1073 m 0
EndSplineSet
EndChar

StartChar: s
Encoding: 115 115 301
Width: 1040
VWidth: 0
Flags: W
PickledData: "(dp1
S'com.typemytype.robofont.layerData'
p2
(dp3
s."
LayerCount: 2
Fore
SplineSet
524 -27 m 0
 739 -27 973 43 973 295 c 0
 973 696 285 604 285 823 c 0
 285 938 401 995 530 995 c 0
 612 995 697 969 754 934 c 1
 723 914 678 886 678 823 c 0
 678 743 743 700 815 700 c 0
 881 700 944 754 944 844 c 0
 944 1012 704 1098 518 1098 c 0
 366 1098 98 1030 98 797 c 0
 98 418 782 536 782 264 c 0
 782 129 639 88 498 88 c 0
 408 88 309 117 258 156 c 1
 307 156 356 204 356 274 c 0
 356 358 289 395 221 395 c 0
 151 395 84 336 84 246 c 0
 84 47 325 -27 524 -27 c 0
520 1073 m 0
520 0 m 0
EndSplineSet
EndChar

StartChar: section
Encoding: 167 167 307
Width: 1034
VWidth: 0
Flags: W
PickledData: "(dp1
S'com.typemytype.robofont.layerData'
p2
(dp3
s."
LayerCount: 2
Fore
SplineSet
512 -8 m 0
 664 -8 932 48 932 281 c 0
 932 359 903 416 856 459 c 1
 922 512 965 590 965 696 c 0
 965 1097 276 1006 276 1225 c 0
 276 1340 393 1384 522 1384 c 0
 618 1384 715 1360 772 1319 c 1
 704 1313 666 1272 666 1202 c 0
 666 1122 735 1085 807 1085 c 0
 873 1085 936 1145 936 1235 c 0
 936 1438 696 1487 510 1487 c 0
 358 1487 90 1431 90 1198 c 0
 90 1120 119 1063 166 1020 c 1
 100 967 57 888 57 782 c 0
 57 381 745 473 745 254 c 0
 745 139 629 94 500 94 c 0
 404 94 307 119 250 160 c 1
 318 166 356 206 356 276 c 0
 356 356 287 393 215 393 c 0
 149 393 86 334 86 244 c 0
 86 41 326 -8 512 -8 c 0
717 543 m 1
 516 625 248 643 248 813 c 0
 248 866 268 907 305 936 c 1
 506 854 774 836 774 666 c 0
 774 617 756 578 725 549 c 1
 717 543 l 1
EndSplineSet
EndChar

StartChar: semicolon
Encoding: 59 59 308
Width: 628
VWidth: 0
Flags: W
PickledData: "(dp1
S'com.typemytype.robofont.layerData'
p2
(dp3
s."
LayerCount: 2
Fore
SplineSet
289 -150 m 1
 340 -119 408 -53 408 0 c 0
 408 10 405 21 399 29 c 1
 379 15 351 4 322 4 c 0
 259 4 199 68 199 131 c 0
 199 205 270 264 338 268 c 0
 426 272 512 207 512 70 c 0
 512 -20 467 -129 344 -215 c 0
 340 -217 336 -221 334 -223 c 1
 289 -150 l 1
199 922 m 0
 199 1004 264 1071 346 1071 c 0
 426 1071 496 1004 496 922 c 0
 496 842 426 774 346 774 c 0
 264 774 199 842 199 922 c 0
EndSplineSet
EndChar

StartChar: seven
Encoding: 55 55 309
Width: 1042
VWidth: 0
Flags: W
PickledData: "(dp1
S'com.typemytype.robofont.layerData'
p2
(dp3
s."
LayerCount: 2
Fore
SplineSet
975 922 m 1
 920 1073 l 1
 98 1073 l 1
 98 688 l 1
 283 688 l 1
 283 932 l 1
 813 932 l 1
 258 -254 l 1
 246 -283 240 -311 240 -334 c 0
 240 -408 293 -451 352 -451 c 0
 399 -451 448 -423 475 -360 c 1
 975 922 l 1
EndSplineSet
EndChar

StartChar: sh
Encoding: 65545 -1 310
Width: 2349
VWidth: 0
Flags: W
PickledData: "(dp1
S'com.typemytype.robofont.layerData'
p2
(dp3
s."
LayerCount: 2
Fore
SplineSet
965 307 m 0
 965 708 276 617 276 836 c 0
 276 951 393 995 522 995 c 0
 618 995 723 969 780 928 c 1
 712 922 674 881 674 811 c 0
 674 731 743 694 815 694 c 0
 881 694 944 754 944 844 c 0
 944 928 811 1149 811 1243 c 0
 811 1349 863 1413 1223 1413 c 1
 1223 117 l 1
 1038 117 l 1
 1038 0 l 1
 1632 0 l 1
 1632 117 l 1
 1438 117 l 1
 1438 598 l 2
 1438 803 1610 961 1745 961 c 0
 1833 961 1905 895 1905 731 c 2
 1905 117 l 1
 1710 117 l 1
 1710 0 l 1
 2335 0 l 1
 2335 117 l 1
 2120 117 l 1
 2120 723 l 2
 2120 1067 1903 1102 1788 1102 c 0
 1669 1102 1518 1047 1438 883 c 1
 1438 1536 l 1
 1245 1536 l 2
 790 1536 700 1440 684 1276 c 0
 676 1192 755 1089 782 1028 c 1
 708 1073 588 1098 510 1098 c 0
 346 1098 90 1042 90 809 c 0
 90 430 774 548 774 276 c 0
 774 141 630 88 489 88 c 0
 399 88 301 117 250 156 c 1
 299 156 348 211 348 281 c 0
 348 365 285 403 217 403 c 0
 147 403 76 342 76 252 c 0
 76 53 317 -27 516 -27 c 0
 731 -27 965 55 965 307 c 0
EndSplineSet
EndChar

StartChar: six
Encoding: 54 54 311
Width: 1241
VWidth: 0
Flags: W
PickledData: "(dp1
S'com.typemytype.robofont.layerData'
p2
(dp3
s."
LayerCount: 2
Fore
SplineSet
653 98 m 0
 446 98 352 287 352 510 c 0
 352 629 546 713 657 713 c 0
 839 713 926 584 926 416 c 0
 926 231 813 98 653 98 c 0
1126 410 m 0
 1126 697 930 844 705 844 c 0
 596 844 444 800 352 700 c 1
 364 1022 542 1257 784 1280 c 1
 782 1264 774 1237 774 1196 c 0
 774 1133 839 1075 905 1075 c 0
 987 1075 1040 1127 1040 1217 c 0
 1040 1317 922 1384 772 1384 c 0
 481 1384 141 1163 141 606 c 2
 141 575 l 1
 149 174 356 -15 614 -27 c 1
 645 -27 l 2
 922 -27 1126 160 1126 410 c 0
EndSplineSet
EndChar

StartChar: sk
Encoding: 65546 -1 312
Width: 2312
VWidth: 0
Flags: W
PickledData: "(dp1
S'com.typemytype.robofont.layerData'
p2
(dp3
s."
LayerCount: 2
Fore
SplineSet
965 307 m 0
 965 708 276 617 276 836 c 0
 276 951 393 995 522 995 c 0
 618 995 723 969 780 928 c 1
 712 922 674 881 674 811 c 0
 674 731 743 694 815 694 c 0
 881 694 944 754 944 844 c 0
 944 928 811 1149 811 1243 c 0
 811 1349 891 1413 1251 1413 c 1
 1251 117 l 1
 1026 117 l 1
 1026 0 l 1
 1636 0 l 1
 1636 117 l 1
 1466 117 l 1
 1466 418 l 1
 1632 545 l 1
 1833 199 l 1
 1919 70 2007 -20 2157 -20 c 0
 2214 -20 2263 -18 2335 23 c 1
 2306 158 l 1
 2275 144 2249 143 2224 139 c 0
 2216 137 2210 137 2202 137 c 0
 2030 137 1892 443 1759 629 c 1
 2105 956 l 1
 2296 956 l 1
 2296 1073 l 1
 1696 1073 l 1
 1696 956 l 1
 1884 956 l 1
 1466 571 l 1
 1466 1536 l 1
 1274 1536 l 2
 819 1536 700 1440 684 1276 c 0
 676 1192 755 1089 782 1028 c 1
 708 1073 588 1098 510 1098 c 0
 346 1098 90 1042 90 809 c 0
 90 430 774 548 774 276 c 0
 774 141 630 88 489 88 c 0
 399 88 301 117 250 156 c 1
 299 156 348 211 348 281 c 0
 348 365 285 403 217 403 c 0
 147 403 76 342 76 252 c 0
 76 53 317 -27 516 -27 c 0
 731 -27 965 55 965 307 c 0
EndSplineSet
EndChar

StartChar: slash
Encoding: 47 47 313
Width: 1191
VWidth: 0
Flags: W
PickledData: "(dp1
S'com.typemytype.robofont.layerData'
p2
(dp3
s."
LayerCount: 2
Fore
SplineSet
887 1597 m 1
 1006 1561 l 1
 432 -170 l 1
 313 -133 l 1
 887 1597 l 1
EndSplineSet
EndChar

StartChar: sterling
Encoding: 163 163 315
Width: 1234
VWidth: 0
Flags: W
PickledData: "(dp1
S'com.typemytype.robofont.layerData'
p2
(dp3
s."
LayerCount: 2
Fore
SplineSet
1110 496 m 1
 924 496 l 1
 924 119 l 1
 344 119 l 1
 442 232 549 448 549 641 c 2
 549 662 l 1
 821 659 l 1
 848 780 l 1
 535 780 l 1
 498 934 413 1013 403 1130 c 0
 389 1292 508 1397 682 1397 c 0
 784 1397 846 1358 893 1309 c 1
 848 1301 770 1239 770 1161 c 0
 770 1071 854 1020 938 1020 c 0
 1042 1020 1108 1098 1108 1202 c 2
 1108 1221 l 1
 1094 1395 901 1509 674 1509 c 2
 664 1509 l 1
 347 1503 143 1347 168 1118 c 1
 180 1020 262 936 299 780 c 1
 164 780 l 1
 141 659 l 1
 313 659 l 1
 313 639 l 2
 313 434 204 248 106 135 c 1
 170 0 l 1
 1110 0 l 1
 1110 496 l 1
EndSplineSet
EndChar

StartChar: t
Encoding: 116 116 316
Width: 892
VWidth: 0
Flags: W
PickledData: "(dp1
S'com.typemytype.robofont.layerData'
p2
(dp3
s."
LayerCount: 2
Fore
SplineSet
184 961 m 1
 -20 961 l 1
 -20 1008 l 1
 238 1084 320 1404 336 1470 c 0
 342 1493 359 1505 373 1505 c 0
 387 1505 399 1493 399 1470 c 2
 399 1073 l 1
 793 1073 l 1
 793 958 l 1
 399 958 l 1
 399 289 l 2
 399 166 461 113 545 113 c 2
 549 113 l 1
 643 115 707 164 707 350 c 2
 707 494 l 1
 827 494 l 1
 827 371 l 2
 827 127 760 -21 518 -27 c 1
 508 -27 l 2
 348 -27 184 70 184 295 c 2
 184 961 l 1
446 0 m 0
446 537 m 0
EndSplineSet
EndChar

StartChar: thorn
Encoding: 254 254 319
Width: 1275
VWidth: 0
Flags: W
PickledData: "(dp1
S'com.typemytype.robofont.layerData'
p2
(dp3
s."
LayerCount: 2
Fore
SplineSet
956 551 m 0
 956 764 864 975 692 975 c 0
 532 975 422 790 422 532 c 0
 422 327 497 86 692 86 c 0
 885 86 956 332 956 551 c 0
1186 539 m 0
 1186 211 1014 -27 731 -27 c 1
 612 -19 504 33 436 133 c 1
 436 -279 l 1
 657 -279 l 1
 657 -401 l 1
 -14 -401 l 1
 -14 -281 l 1
 221 -281 l 1
 221 1423 l 1
 27 1423 l 1
 27 1536 l 1
 430 1536 l 1
 430 901 l 1
 500 1028 612 1098 741 1102 c 0
 1005 1112 1186 858 1186 539 c 0
EndSplineSet
EndChar

StartChar: three
Encoding: 51 51 320
Width: 1105
VWidth: 0
Flags: W
PickledData: "(dp1
S'com.typemytype.robofont.layerData'
p2
(dp3
s."
LayerCount: 2
Fore
SplineSet
446 -305 m 2
 465 -305 l 1
 815 -295 1026 -111 1026 133 c 0
 1026 311 924 446 670 473 c 1
 846 518 926 623 926 760 c 2
 926 768 l 1
 922 926 807 1104 514 1104 c 0
 254 1104 63 982 63 760 c 0
 63 688 127 598 238 598 c 0
 324 598 383 659 383 745 c 0
 383 847 288 874 233 874 c 1
 311 962 369 983 475 983 c 0
 639 983 735 893 735 754 c 0
 735 615 627 533 408 500 c 1
 432 373 l 1
 469 379 504 385 535 385 c 2
 549 385 l 1
 760 371 803 252 805 133 c 1
 805 127 l 2
 805 -41 686 -183 442 -203 c 1
 424 -203 l 2
 397 -203 371 -199 342 -195 c 1
 348 -172 369 -139 369 -98 c 0
 369 -32 319 41 231 41 c 0
 131 41 90 -22 90 -102 c 1
 98 -239 258 -305 446 -305 c 2
EndSplineSet
EndChar

StartChar: threequarters
Encoding: 190 190 321
Width: 1878
VWidth: 0
Flags: W
PickledData: "(dp1
S'com.typemytype.robofont.layerData'
p2
(dp3
s."
LayerCount: 2
Fore
SplineSet
1157 352 m 1
 1393 696 l 1
 1393 352 l 1
 1157 352 l 1
1649 0 m 1
 1649 86 l 1
 1518 86 l 1
 1518 268 l 1
 1649 268 l 1
 1649 352 l 1
 1518 352 l 1
 1518 805 l 1
 1360 805 l 1
 1044 360 l 1
 1044 268 l 1
 1393 268 l 1
 1393 86 l 1
 1247 86 l 1
 1247 0 l 1
 1649 0 l 1
453 729 m 1
 664 735 801 848 801 995 c 0
 801 1101 727 1206 563 1206 c 2
 549 1206 l 1
 668 1229 735 1305 735 1389 c 1
 733 1483 659 1583 481 1583 c 0
 327 1583 209 1480 209 1384 c 2
 209 1374 l 1
 213 1331 241 1280 307 1280 c 0
 360 1280 403 1319 403 1370 c 0
 403 1429 357 1450 322 1456 c 1
 367 1497 420 1516 467 1516 c 0
 549 1516 616 1464 616 1380 c 0
 616 1296 551 1237 418 1217 c 1
 432 1141 l 1
 455 1145 476 1147 494 1147 c 2
 504 1147 l 1
 631 1139 653 1067 653 995 c 2
 653 991 l 2
 653 891 571 803 442 803 c 0
 424 803 404 805 381 809 c 1
 391 823 397 846 397 866 c 0
 397 907 364 944 311 944 c 0
 250 944 225 905 225 856 c 1
 229 774 327 729 440 729 c 2
 453 729 l 1
344 -2 m 1
 444 -61 l 1
 1509 1419 l 1
 1409 1479 l 1
 344 -2 l 1
EndSplineSet
EndChar

StartChar: tilde
Encoding: 732 732 322
Width: 1060
VWidth: 0
Flags: W
PickledData: "(dp1
S'com.typemytype.robofont.layerData'
p2
(dp3
s."
LayerCount: 2
Fore
SplineSet
797 1360 m 0
 865 1360 885 1334 885 1268 c 1
 973 1268 l 1
 973 1446 928 1511 805 1511 c 0
 696 1511 551 1417 463 1417 c 0
 395 1417 375 1443 375 1509 c 1
 287 1509 l 1
 287 1331 332 1266 455 1266 c 0
 564 1266 709 1360 797 1360 c 0
630 1073 m 0
EndSplineSet
EndChar

StartChar: trademark
Encoding: 8482 8482 323
Width: 3414
VWidth: 0
Flags: W
PickledData: "(dp1
S'com.typemytype.robofont.layerData'
p2
(dp3
s."
LayerCount: 2
Fore
SplineSet
1135 770 m 1
 786 770 l 1
 786 860 l 1
 905 860 l 1
 905 1412 l 1
 787 1412 l 1
 787 1505 l 1
 1111 1505 l 1
 1289 1069 l 1
 1455 1505 l 1
 1757 1505 l 1
 1757 1412 l 1
 1641 1412 l 1
 1641 860 l 1
 1759 860 l 1
 1759 770 l 1
 1401 770 l 1
 1401 860 l 1
 1506 860 l 1
 1506 1367 l 1
 1324 905 l 2
 1313 878 1298 860 1276 860 c 0
 1252 860 1234 880 1225 902 c 2
 1018 1386 l 1
 1018 860 l 1
 1135 860 l 1
 1135 770 l 1
571 862 m 1
 452 862 l 1
 452 1412 l 1
 629 1412 l 1
 629 1201 l 1
 732 1201 l 1
 732 1505 l 1
 49 1505 l 1
 49 1201 l 1
 152 1201 l 1
 152 1412 l 1
 329 1412 l 1
 329 862 l 1
 207 862 l 1
 207 770 l 1
 571 770 l 1
 571 862 l 1
EndSplineSet
EndChar

StartChar: tt
Encoding: 65547 -1 324
Width: 1628
VWidth: 0
Flags: W
PickledData: "(dp1
S'com.typemytype.robofont.layerData'
p2
(dp3
s."
LayerCount: 2
Fore
SplineSet
1280 -27 m 0
 1522 -27 1563 147 1563 391 c 2
 1563 494 l 1
 1446 494 l 1
 1446 371 l 2
 1446 185 1397 113 1303 113 c 0
 1221 113 1161 152 1161 299 c 2
 1161 961 l 1
 1454 961 l 1
 1454 1073 l 1
 1161 1073 l 1
 1161 1591 l 2
 1161 1614 1149 1626 1135 1626 c 0
 1121 1626 1104 1614 1098 1591 c 0
 1049 1382 1016 1073 821 1073 c 2
 416 1073 l 1
 416 1591 l 2
 416 1614 403 1626 389 1626 c 0
 375 1626 358 1614 352 1591 c 0
 291 1333 297 1096 -4 1008 c 1
 -4 961 l 1
 201 961 l 1
 201 305 l 2
 201 76 362 -27 524 -27 c 0
 766 -27 823 147 823 391 c 2
 823 494 l 1
 709 494 l 1
 709 371 l 2
 709 185 653 113 559 113 c 0
 477 113 416 160 416 299 c 2
 416 961 l 1
 946 961 l 1
 946 326 l 2
 946 97 1087 -27 1280 -27 c 0
EndSplineSet
EndChar

StartChar: two
Encoding: 50 50 325
Width: 1058
VWidth: 0
Flags: W
PickledData: "(dp1
S'com.typemytype.robofont.layerData'
p2
(dp3
s."
LayerCount: 2
Fore
SplineSet
995 -137 m 1
 958 164 l 1
 424 164 l 1
 694 360 l 1
 903 493 963 635 963 727 c 0
 963 969 807 1106 561 1106 c 0
 299 1106 86 959 86 795 c 2
 86 788 l 1
 88 712 135 627 252 627 c 0
 342 627 406 684 406 772 c 0
 406 844 352 885 309 897 c 1
 364 960 438 991 524 991 c 0
 649 991 756 876 756 741 c 0
 756 645 711 543 600 469 c 1
 575 451 123 119 123 119 c 1
 125 119 143 0 143 0 c 1
 831 0 l 1
 926 -147 l 1
 995 -137 l 1
EndSplineSet
EndChar

StartChar: twosuperior
Encoding: 178 178 326
Width: 1001
VWidth: 0
Flags: W
PickledData: "(dp1
S'com.typemytype.robofont.layerData'
p2
(dp3
s."
LayerCount: 2
Fore
SplineSet
844 571 m 1
 817 797 l 1
 422 797 l 1
 623 944 l 1
 777 1044 821 1151 821 1219 c 0
 821 1401 704 1505 522 1505 c 0
 327 1505 170 1393 170 1270 c 2
 170 1266 l 1
 172 1209 207 1145 293 1145 c 0
 361 1145 408 1187 408 1255 c 0
 408 1308 367 1338 336 1348 c 1
 377 1395 433 1419 496 1419 c 0
 588 1419 668 1331 668 1231 c 0
 668 1157 633 1081 553 1026 c 0
 533 1012 199 764 199 764 c 1
 201 764 213 674 213 674 c 1
 723 674 l 1
 793 563 l 1
 844 571 l 1
EndSplineSet
EndChar

StartChar: u
Encoding: 117 117 327
Width: 1286
VWidth: 0
Flags: W
PickledData: "(dp1
S'com.typemytype.robofont.layerData'
p2
(dp3
s."
LayerCount: 2
Fore
SplineSet
881 -29 m 1
 1284 0 l 1
 1284 92 l 1
 1090 113 l 1
 1090 1073 l 1
 692 1073 l 1
 692 954 l 1
 874 954 l 1
 874 375 l 2
 874 250 703 117 578 117 c 2
 573 117 l 2
 456 117 399 186 399 362 c 2
 399 1073 l 1
 -4 1073 l 1
 -4 954 l 1
 184 954 l 1
 184 360 l 2
 184 12 399 -29 520 -29 c 0
 645 -29 783 21 881 197 c 1
 881 -29 l 1
643 1073 m 0
1157 10 m 0
EndSplineSet
EndChar

StartChar: underscore
Encoding: 95 95 335
Width: 739
VWidth: 0
Flags: W
PickledData: "(dp1
S'com.typemytype.robofont.layerData'
p2
(dp3
s."
LayerCount: 2
Fore
SplineSet
748 -127 m 1
 748 10 l 1
 -8 10 l 1
 -8 -127 l 1
 748 -127 l 1
EndSplineSet
EndChar

StartChar: uni00AD
Encoding: 173 173 336
Width: 778
VWidth: 0
Flags: W
PickledData: "(dp1
S'com.typemytype.robofont.layerData'
p2
(dp3
s."
LayerCount: 2
Fore
SplineSet
724 797 m 1
 61 797 l 1
 61 649 l 1
 724 649 l 1
 724 797 l 1
EndSplineSet
EndChar

StartChar: uni00B2
Encoding: 178 178 337
Width: 1959
VWidth: 0
Flags: W
PickledData: "(dp1
S'com.typemytype.robofont.layerData'
p2
(dp3
s."
LayerCount: 2
Fore
SplineSet
1409 1479 m 1
 1509 1419 l 1
 444 -61 l 1
 344 -2 l 1
 1409 1479 l 1
260 750 m 1
 664 750 l 1
 664 836 l 1
 539 836 l 1
 539 1561 l 1
 260 1483 l 1
 260 1376 l 1
 393 1411 l 1
 393 836 l 1
 260 836 l 1
 260 750 l 1
1792 -102 m 1
 1765 123 l 1
 1370 123 l 1
 1571 270 l 1
 1725 370 1769 477 1769 545 c 0
 1769 727 1652 831 1470 831 c 0
 1275 831 1118 719 1118 596 c 2
 1118 592 l 1
 1120 535 1155 471 1241 471 c 0
 1309 471 1356 514 1356 582 c 0
 1356 635 1315 664 1284 674 c 1
 1325 721 1381 745 1444 745 c 0
 1536 745 1616 657 1616 557 c 0
 1616 483 1581 407 1501 352 c 0
 1481 338 1147 90 1147 90 c 1
 1149 90 1161 0 1161 0 c 1
 1671 0 l 1
 1741 -111 l 1
 1792 -102 l 1
EndSplineSet
EndChar

StartChar: uni00B3
Encoding: 179 179 338
Width: 1878
VWidth: 0
Flags: W
PickledData: "(dp1
S'com.typemytype.robofont.layerData'
p2
(dp3
s."
LayerCount: 2
Fore
SplineSet
1157 352 m 1
 1393 696 l 1
 1393 352 l 1
 1157 352 l 1
1649 0 m 1
 1649 86 l 1
 1518 86 l 1
 1518 268 l 1
 1649 268 l 1
 1649 352 l 1
 1518 352 l 1
 1518 805 l 1
 1360 805 l 1
 1044 360 l 1
 1044 268 l 1
 1393 268 l 1
 1393 86 l 1
 1247 86 l 1
 1247 0 l 1
 1649 0 l 1
453 729 m 1
 664 735 801 848 801 995 c 0
 801 1101 727 1206 563 1206 c 2
 549 1206 l 1
 668 1229 735 1305 735 1389 c 1
 733 1483 659 1583 481 1583 c 0
 327 1583 209 1480 209 1384 c 2
 209 1374 l 1
 213 1331 241 1280 307 1280 c 0
 360 1280 403 1319 403 1370 c 0
 403 1429 357 1450 322 1456 c 1
 367 1497 420 1516 467 1516 c 0
 549 1516 616 1464 616 1380 c 0
 616 1296 551 1237 418 1217 c 1
 432 1141 l 1
 455 1145 476 1147 494 1147 c 2
 504 1147 l 1
 631 1139 653 1067 653 995 c 2
 653 991 l 2
 653 891 571 803 442 803 c 0
 424 803 404 805 381 809 c 1
 391 823 397 846 397 866 c 0
 397 907 364 944 311 944 c 0
 250 944 225 905 225 856 c 1
 229 774 327 729 440 729 c 2
 453 729 l 1
344 -2 m 1
 444 -61 l 1
 1509 1419 l 1
 1409 1479 l 1
 344 -2 l 1
EndSplineSet
EndChar

StartChar: uni00B9
Encoding: 185 185 339
Width: 1878
VWidth: 0
Flags: W
PickledData: "(dp1
S'com.typemytype.robofont.layerData'
p2
(dp3
s."
LayerCount: 2
Fore
SplineSet
1409 1479 m 1
 1509 1419 l 1
 444 -61 l 1
 344 -2 l 1
 1409 1479 l 1
260 750 m 1
 664 750 l 1
 664 836 l 1
 539 836 l 1
 539 1561 l 1
 260 1483 l 1
 260 1376 l 1
 393 1411 l 1
 393 836 l 1
 260 836 l 1
 260 750 l 1
1649 86 m 1
 1518 86 l 1
 1518 268 l 1
 1649 268 l 1
 1649 352 l 1
 1518 352 l 1
 1518 805 l 1
 1360 805 l 1
 1044 360 l 1
 1044 268 l 1
 1393 268 l 1
 1393 86 l 1
 1247 86 l 1
 1247 0 l 1
 1649 0 l 1
 1649 86 l 1
1393 352 m 1
 1157 352 l 1
 1393 696 l 1
 1393 352 l 1
EndSplineSet
EndChar

StartChar: uni0307
Encoding: 775 775 380
Width: 669
VWidth: 0
Flags: W
PickledData: "(dp1
S'com.typemytype.robofont.layerData'
p2
(dp3
s."
LayerCount: 2
Fore
SplineSet
186 1358 m 0
 186 1440 252 1507 334 1507 c 0
 414 1507 483 1440 483 1358 c 0
 483 1278 414 1210 334 1210 c 0
 252 1210 186 1278 186 1358 c 0
EndSplineSet
EndChar

StartChar: uni030F
Encoding: 783 783 381
Width: 1269
VWidth: 0
Flags: W
PickledData: "(dp1
S'com.typemytype.robofont.layerData'
p2
(dp3
s."
LayerCount: 2
Fore
SplineSet
544.1 1499 m 1
 644.1 1397 1050.1 1194 1050.1 1194 c 1
 1079.1 1233 l 1
 897.1 1389 645.1 1638 645.1 1638 c 1
 544.1 1499 l 1
155.1 1499 m 1
 255.1 1397 661.1 1194 661.1 1194 c 1
 690.1 1233 l 1
 508.1 1389 255.1 1638 255.1 1638 c 1
 155.1 1499 l 1
EndSplineSet
EndChar

StartChar: uni0311
Encoding: 785 785 382
Width: 1189
VWidth: 0
Flags: W
PickledData: "(dp1
S'com.typemytype.robofont.layerData'
p2
(dp3
s."
LayerCount: 2
Fore
SplineSet
338 1206 m 1
 342 1302 415 1448 577 1448 c 0
 741 1448 815 1304 819 1202 c 1
 690 1202 l 1
 688 1282 634 1329 579 1329 c 0
 526 1329 471 1282 467 1206 c 1
 338 1206 l 1
EndSplineSet
EndChar

StartChar: uni0326
Encoding: 806 806 383
Width: 1269
VWidth: 0
Flags: W
PickledData: "(dp1
S'com.typemytype.robofont.layerData'
p2
(dp3
s."
LayerCount: 2
Fore
SplineSet
701.1 -68.8008 m 1
 707.632 -177.142 579.611 -509.705 579.611 -509.705 c 1
 531.306 -504.361 l 1
 541.114 -327.936 530.54 -68.8008 530.54 -68.8008 c 1
 701.1 -68.8008 l 1
EndSplineSet
EndChar

StartChar: uni2074
Encoding: 8308 8308 384
Width: 1878
VWidth: 0
Flags: W
PickledData: "(dp1
S'com.typemytype.robofont.layerData'
p2
(dp3
s."
LayerCount: 2
Fore
SplineSet
1157 352 m 1
 1393 696 l 1
 1393 352 l 1
 1157 352 l 1
1649 0 m 1
 1649 86 l 1
 1518 86 l 1
 1518 268 l 1
 1649 268 l 1
 1649 352 l 1
 1518 352 l 1
 1518 805 l 1
 1360 805 l 1
 1044 360 l 1
 1044 268 l 1
 1393 268 l 1
 1393 86 l 1
 1247 86 l 1
 1247 0 l 1
 1649 0 l 1
453 729 m 1
 664 735 801 848 801 995 c 0
 801 1101 727 1206 563 1206 c 2
 549 1206 l 1
 668 1229 735 1305 735 1389 c 1
 733 1483 659 1583 481 1583 c 0
 327 1583 209 1480 209 1384 c 2
 209 1374 l 1
 213 1331 241 1280 307 1280 c 0
 360 1280 403 1319 403 1370 c 0
 403 1429 357 1450 322 1456 c 1
 367 1497 420 1516 467 1516 c 0
 549 1516 616 1464 616 1380 c 0
 616 1296 551 1237 418 1217 c 1
 432 1141 l 1
 455 1145 476 1147 494 1147 c 2
 504 1147 l 1
 631 1139 653 1067 653 995 c 2
 653 991 l 2
 653 891 571 803 442 803 c 0
 424 803 404 805 381 809 c 1
 391 823 397 846 397 866 c 0
 397 907 364 944 311 944 c 0
 250 944 225 905 225 856 c 1
 229 774 327 729 440 729 c 2
 453 729 l 1
344 -2 m 1
 444 -61 l 1
 1509 1419 l 1
 1409 1479 l 1
 344 -2 l 1
EndSplineSet
EndChar

StartChar: uni2206
Encoding: 8710 8710 385
Width: 921
VWidth: 0
Flags: W
PickledData: "(dp1
S'com.typemytype.robofont.layerData'
p2
(dp3
s."
LayerCount: 2
Fore
SplineSet
408 1116 m 1
 53 315 l 1
 219 315 l 1
 498 975 l 1
 760 315 l 1
 930 315 l 1
 604 1116 l 1
 408 1116 l 1
EndSplineSet
EndChar

StartChar: uniFB01
Encoding: 64257 64257 386
Width: 1310
VWidth: 0
Flags: W
PickledData: "(dp1
S'com.typemytype.robofont.layerData'
p2
(dp3
s."
LayerCount: 2
Fore
SplineSet
651 0 m 1
 651 117 l 1
 483 117 l 1
 483 961 l 1
 905 961 l 1
 905 117 l 1
 750 117 l 1
 750 0 l 1
 1296 0 l 1
 1296 117 l 1
 1120 117 l 1
 1120 1073 l 1
 477 1073 l 1
 477 1243 l 2
 477 1427 655 1499 772 1499 c 0
 835 1499 956 1468 958 1415 c 1
 903 1415 829 1370 829 1294 c 0
 829 1214 895 1159 965 1159 c 0
 1047 1159 1114 1218 1114 1327 c 0
 1114 1444 1003 1583 741 1583 c 0
 432 1583 268 1413 268 1073 c 1
 74 1073 l 1
 74 961 l 1
 268 961 l 1
 268 117 l 1
 74 117 l 1
 74 0 l 1
 651 0 l 1
EndSplineSet
EndChar

StartChar: uniFB02
Encoding: 64258 64258 387
Width: 1421
VWidth: 0
Flags: W
PickledData: "(dp1
S'com.typemytype.robofont.layerData'
p2
(dp3
s."
LayerCount: 2
Fore
SplineSet
649 117 m 1
 483 117 l 1
 483 961 l 1
 809 961 l 1
 809 1073 l 1
 477 1073 l 1
 477 1243 l 2
 477 1427 600 1489 717 1489 c 0
 801 1489 932 1471 950 1403 c 1
 950 117 l 1
 776 117 l 1
 776 0 l 1
 1380 0 l 1
 1380 117 l 1
 1165 117 l 1
 1165 1405 l 2
 1165 1507 917 1583 686 1583 c 0
 405 1583 268 1413 268 1073 c 1
 74 1073 l 1
 74 961 l 1
 268 961 l 1
 268 117 l 1
 74 117 l 1
 74 0 l 1
 649 0 l 1
 649 117 l 1
EndSplineSet
EndChar

StartChar: v
Encoding: 118 118 391
Width: 1255
VWidth: 0
Flags: W
PickledData: "(dp1
S'com.typemytype.robofont.layerData'
p2
(dp3
s."
LayerCount: 2
Fore
SplineSet
635 -39 m 1
 641 -39 l 2
 719 -39 764 6 803 115 c 2
 1098 954 l 1
 1270 954 l 1
 1270 1073 l 1
 758 1073 l 1
 758 954 l 1
 928 954 l 1
 672 158 l 1
 408 954 l 1
 590 954 l 1
 590 1073 l 1
 -14 1073 l 1
 -14 954 l 1
 170 954 l 1
 483 109 l 2
 520 7 565 -37 635 -39 c 1
EndSplineSet
EndChar

StartChar: w
Encoding: 119 119 392
Width: 1687
VWidth: 0
Flags: W
PickledData: "(dp1
S'com.typemytype.robofont.layerData'
p2
(dp3
s."
LayerCount: 2
Fore
SplineSet
1188 -39 m 0
 1262 -39 1290 -4 1319 109 c 1
 1546 954 l 1
 1688 954 l 1
 1688 1073 l 1
 1227 1073 l 1
 1227 954 l 1
 1395 954 l 1
 1208 213 l 1
 991 958 l 1
 809 958 l 1
 575 219 l 1
 408 954 l 1
 569 954 l 1
 569 1073 l 1
 8 1073 l 1
 8 954 l 1
 176 954 l 1
 403 104 l 1
 434 0 467 -39 530 -39 c 0
 606 -39 639 2 674 111 c 2
 881 748 l 1
 1057 102 l 1
 1086 0 1120 -39 1188 -39 c 0
844 1073 m 0
EndSplineSet
EndChar

StartChar: x
Encoding: 120 120 393
Width: 1280
VWidth: 0
Flags: W
PickledData: "(dp1
S'com.typemytype.robofont.layerData'
p2
(dp3
s."
LayerCount: 2
Fore
SplineSet
571 1073 m 1
 571 954 l 1
 422 954 l 1
 647 659 l 1
 874 952 l 1
 713 952 l 1
 713 1073 l 1
 1217 1073 l 1
 1217 954 l 1
 1053 954 l 1
 736.814 571.922 l 1
 1110 119 l 1
 1276 119 l 1
 1276 0 l 1
 682 0 l 1
 682 119 l 1
 860 119 l 1
 622 440 l 1
 362 119 l 1
 543 119 l 1
 543 0 l 1
 27 0 l 1
 27 119 l 1
 184 119 l 1
 521.511 526.459 l 1
 168 952 l 1
 4 952 l 1
 4 1073 l 1
 571 1073 l 1
EndSplineSet
EndChar

StartChar: y
Encoding: 121 121 394
Width: 1280
VWidth: 0
Flags: W
PickledData: "(dp1
S'com.typemytype.robofont.layerData'
p2
(dp3
s."
LayerCount: 2
Fore
SplineSet
360 -467 m 0
 532 -467 655 -358 778 -4 c 1
 1122 954 l 1
 1294 954 l 1
 1294 1073 l 1
 780 1073 l 1
 780 954 l 1
 946 954 l 1
 698 176 l 1
 408 954 l 1
 590 954 l 1
 590 1073 l 1
 -27 1073 l 1
 -27 954 l 1
 172 954 l 1
 569 -23 l 1
 524 -277 439 -362 328 -362 c 0
 301 -362 285 -352 262 -340 c 1
 303 -320 346 -282 346 -229 c 0
 346 -155 309 -84 221 -84 c 0
 112 -84 49 -154 49 -244 c 0
 49 -375 176 -467 360 -467 c 0
640 1073 m 0
EndSplineSet
EndChar

StartChar: yen
Encoding: 165 165 397
Width: 1601
VWidth: 0
Flags: W
PickledData: "(dp1
S'com.typemytype.robofont.layerData'
p2
(dp3
s."
LayerCount: 2
Fore
SplineSet
1143 735 m 1
 397 735 l 1
 397 604 l 1
 397 604 1143 602 1143 604 c 2
 1143 735 l 1
1143 528 m 1
 397 528 l 1
 397 397 l 1
 1143 397 l 1
 1143 528 l 1
EndSplineSet
Refer: 109 89 N 1 0 0 1 0 0 2
EndChar

StartChar: z
Encoding: 122 122 398
Width: 1093
VWidth: 0
Flags: W
PickledData: "(dp1
S'com.typemytype.robofont.layerData'
p2
(dp3
s."
LayerCount: 2
Fore
SplineSet
1010 0 m 1
 1010 418 l 1
 846 418 l 1
 846 117 l 1
 324 117 l 1
 969 924 l 1
 940 1073 l 1
 119 1073 l 1
 119 686 l 1
 283 686 l 1
 283 961 l 1
 748 961 l 1
 111 158 l 1
 109 158 l 1
 127 0 l 1
 1010 0 l 1
547 1073 m 0
EndSplineSet
EndChar

StartChar: zero
Encoding: 48 48 402
Width: 1114
VWidth: 0
Flags: W
PickledData: "(dp1
S'com.typemytype.robofont.layerData'
p2
(dp3
s."
LayerCount: 2
Fore
SplineSet
557 1102 m 0
 876 1102 1040 820 1040 539 c 0
 1040 256 879 -27 557 -27 c 0
 235 -27 74 256 74 539 c 0
 74 820 238 1102 557 1102 c 0
557 100 m 0
 727 100 819 318 819 539 c 0
 819 760 723 983 557 983 c 0
 391 983 295 760 295 539 c 0
 295 318 387 100 557 100 c 0
EndSplineSet
EndChar
